<?xml version="1.0" encoding="UTF-8"?>
<svg xmlns="http://www.w3.org/2000/svg" xmlns:xlink="http://www.w3.org/1999/xlink" version="1.2" >
<font id="Gentleman 500 Book">
<font-face  font-family="Gentleman 500" units-per-em="1000" ascent="750" descent="-250" font-style="normal" font-weight="500" font-stretch="normal" cap-height="700" x-height="500" underline-position="-75" underline-thickness="50" />
<missing-glyph  horiz-adv-x="634" d="M50 700 L50 0 L584 0 L584 700 L50 700 Z M120 638 L514 638 L514 62 L120 62 L120 638 Z " />
<glyph glyph-name="NULL" d="" />
<glyph glyph-name="&amp;#x0;" horiz-adv-x="250" d="" />
<glyph glyph-name="&amp;#xd;" unicode="&#xd;" horiz-adv-x="250" d="" />
<glyph glyph-name="space" unicode="&#x20;" horiz-adv-x="272" d="" />
<glyph glyph-name="exclam" unicode="&#x21;" horiz-adv-x="284" d="M107 190 L177 190 L177 700 L107 700 L107 190 Z M107 0 L177 0 L177 85 L107 85 L107 0 Z " />
<glyph glyph-name="quotedbl" unicode="&#x22;" horiz-adv-x="363" d="M75 468 L145 468 L145 700 L75 700 L75 468 Z M218 468 L288 468 L288 700 L218 700 L218 468 Z " />
<glyph glyph-name="numbersign" unicode="&#x23;" horiz-adv-x="571" d="M68 430 L170 430 L148 273 L45 273 L45 211 L139 211 L111 0 L182 0 L210 211 L331 211 L303 0 L374 0 L402 211 L502 211 L502 273 L411 273 L433 430 L525 430 L525 492 L441 492 L470 700 L399 700 L370 492 L249 492 L278 700 L207 700 L178 492 L68 492 L68 430 Z M241 430 L362 430 L340 273 L219 273 L241 430 Z " />
<glyph glyph-name="dollar" unicode="&#x24;" horiz-adv-x="517" d="M459 644 C459 644 404 701 301 710 L301 791 L231 791 L231 709 C124 694 54 622 54 531 C54 409 151 372 244 326 C318 290 402 259 402 167 C402 103 349 52 262 52 C148 52 88 120 88 120 L40 78 C40 78 107 1 231 -10 L231 -90 L301 -90 L301 -9 C409 5 474 80 474 167 C474 302 374 336 276 384 C200 421 126 445 126 531 C126 597 186 648 272 648 C367 648 413 600 413 600 L459 644 Z " />
<glyph glyph-name="percent" unicode="&#x25;" horiz-adv-x="806" d="M369 539 C369 632 296 704 203 704 C110 704 37 632 37 539 C37 446 110 374 203 374 C296 374 369 446 369 539 L369 539 Z M769 161 C769 254 696 326 603 326 C510 326 437 254 437 161 C437 68 510 -4 603 -4 C696 -4 769 68 769 161 L769 161 Z M297 539 C297 482 256 438 203 438 C150 438 109 482 109 539 C109 596 150 640 203 640 C256 640 297 596 297 539 L297 539 Z M697 161 C697 104 656 60 603 60 C550 60 509 104 509 161 C509 218 550 262 603 262 C656 262 697 218 697 161 L697 161 Z M585 718 L139 -18 L218 -18 L664 718 L585 718 Z " />
<glyph glyph-name="ampersand" unicode="&#x26;" horiz-adv-x="695" d="M234 565 C235 618 272 648 314 648 C354 648 389 621 389 573 C389 520 347 474 297 437 C265 476 234 522 234 565 L234 565 Z M280 52 C211 52 154 93 154 166 C154 255 201 298 282 348 L435 156 C393 92 350 52 280 52 L280 52 Z M163 565 C163 505 202 448 241 400 C148 340 82 276 82 166 C82 52 171 -12 280 -12 C375 -12 430 31 479 101 L559 0 L645 0 L517 161 L649 376 L570 376 L472 217 L338 385 C406 433 461 493 461 573 C461 662 393 712 314 712 C232 712 163 659 163 565 L163 565 Z " />
<glyph glyph-name="quotesingle" unicode="&#x27;" horiz-adv-x="220" d="M75 468 L145 468 L145 700 L75 700 L75 468 Z " />
<glyph glyph-name="parenleft" unicode="&#x28;" horiz-adv-x="283" d="M197 728 C109 618 47 455 47 285 C47 115 109 -48 197 -158 L248 -120 C172 -20 117 129 117 285 C117 441 172 590 248 690 L197 728 Z " />
<glyph glyph-name="parenright" unicode="&#x29;" horiz-adv-x="283" d="M35 690 C111 590 166 441 166 285 C166 129 111 -20 35 -120 L86 -158 C174 -48 236 115 236 285 C236 455 174 618 86 728 L35 690 Z " />
<glyph glyph-name="asterisk" unicode="&#x2a;" horiz-adv-x="475" d="M379 385 L288 506 L425 545 L405 605 L270 561 L271 700 L201 700 L202 562 L71 607 L49 549 L186 507 L94 385 L150 347 L236 468 L323 347 L379 385 Z " />
<glyph glyph-name="plus" unicode="&#x2b;" horiz-adv-x="627" d="M41 293 L279 293 L279 51 L349 51 L349 293 L586 293 L586 355 L349 355 L349 596 L279 596 L279 355 L41 355 L41 293 Z " />
<glyph glyph-name="comma" unicode="&#x2c;" horiz-adv-x="246" d="M94 -140 L168 95 L96 95 L26 -140 L94 -140 Z " />
<glyph glyph-name="hyphen" unicode="&#x2d;" horiz-adv-x="348" d="M54 229 L294 229 L294 291 L54 291 L54 229 Z " />
<glyph glyph-name="period" unicode="&#x2e;" horiz-adv-x="210" d="M70 0 L140 0 L140 85 L70 85 L70 0 Z " />
<glyph glyph-name="slash" unicode="&#x2f;" horiz-adv-x="441" d="M335 716 L32 -9 L106 -9 L409 716 L335 716 Z " />
<glyph glyph-name="zero" unicode="0" horiz-adv-x="571" d="M286 712 C113 712 60 528 60 349 C60 170 113 -12 286 -12 C457 -12 512 170 512 349 C512 528 457 712 286 712 L286 712 Z M286 649 C403 649 441 497 441 349 C441 201 403 51 286 51 C167 51 131 201 131 349 C131 497 167 649 286 649 L286 649 Z " />
<glyph glyph-name="one" unicode="1" horiz-adv-x="331" d="M151 633 L153 633 L153 0 L222 0 L222 700 L136 700 L16 602 L58 557 L151 633 Z " />
<glyph glyph-name="two" unicode="2" horiz-adv-x="542" d="M493 61 L123 61 C123 256 482 310 482 526 C482 620 403 712 269 712 C121 712 57 586 57 586 C76 576 94 567 113 557 C113 557 160 649 269 649 C358 649 411 590 411 526 C411 350 52 287 52 65 L52 0 L493 0 L493 61 Z " />
<glyph glyph-name="three" unicode="3" horiz-adv-x="552" d="M273 329 C332 327 420 287 420 196 C420 98 356 51 253 51 C132 50 100 145 100 145 L40 125 C40 125 86 -12 256 -12 C398 -10 491 56 491 196 C491 283 420 345 347 362 L347 364 C412 377 473 437 473 521 C473 615 405 712 257 712 C109 712 66 602 66 602 L125 579 C125 579 152 649 260 649 C357 650 402 585 402 521 C402 437 331 394 273 392 L226 392 L226 329 L273 329 Z " />
<glyph glyph-name="four" unicode="4" horiz-adv-x="563" d="M29 259 L29 172 L353 172 L353 0 L422 0 L422 172 L527 172 L527 233 L422 233 L422 700 L342 700 L29 259 Z M351 599 L353 599 L353 233 L94 233 L94 235 L351 599 Z " />
<glyph glyph-name="five" unicode="5" horiz-adv-x="544" d="M450 700 L96 700 L90 371 L137 346 C152 357 201 391 257 391 C355 391 430 324 430 220 C430 135 361 51 252 51 C178 51 122 87 95 143 L39 115 C77 38 152 -12 252 -12 C403 -12 501 104 501 220 C501 362 394 454 257 454 C221 454 185 444 162 432 C161 432 161 433 160 433 L164 639 L450 639 L450 700 Z " />
<glyph glyph-name="six" unicode="6" horiz-adv-x="571" d="M309 385 C395 385 456 317 456 222 C456 116 390 51 307 51 C208 51 139 143 127 274 C154 331 231 385 309 385 L309 385 Z M309 448 C240 448 170 417 129 372 L127 372 C145 504 214 649 362 649 C422 649 459 628 459 628 L490 683 C490 683 439 712 362 712 C146 712 54 492 54 317 C54 127 155 -12 307 -12 C429 -12 527 77 527 222 C527 354 436 448 309 448 L309 448 Z " />
<glyph glyph-name="seven" unicode="7" horiz-adv-x="458" d="M442 700 L27 700 L27 639 L377 639 L377 637 L83 0 L158 0 L442 617 L442 700 Z " />
<glyph glyph-name="eight" unicode="8" horiz-adv-x="559" d="M492 177 C492 277 434 322 364 357 L364 359 C427 391 475 435 475 528 C475 652 395 712 285 712 C180 712 90 642 90 528 C90 440 136 397 197 364 L197 362 C126 329 69 281 69 177 C69 42 180 -12 285 -12 C387 -12 492 55 492 177 L492 177 Z M421 177 C421 95 353 51 285 51 C214 51 140 86 140 177 C140 267 205 299 275 326 C347 295 421 265 421 177 L421 177 Z M161 528 C161 604 218 649 285 649 C355 649 404 610 404 528 C404 449 349 419 285 392 C220 419 161 449 161 528 L161 528 Z " />
<glyph glyph-name="nine" unicode="9" horiz-adv-x="570" d="M261 315 C175 315 114 383 114 478 C114 584 180 649 263 649 C362 649 431 557 443 426 C416 369 339 315 261 315 L261 315 Z M261 252 C330 252 400 283 441 328 L443 328 C425 196 356 51 208 51 C148 51 111 72 111 72 L80 17 C80 17 131 -12 208 -12 C424 -12 516 208 516 383 C516 573 415 712 263 712 C141 712 43 623 43 478 C43 346 134 252 261 252 L261 252 Z " />
<glyph glyph-name="colon" unicode="&#x3a;" horiz-adv-x="210" d="M70 0 L140 0 L140 85 L70 85 L70 0 Z M70 415 L140 415 L140 500 L70 500 L70 415 Z " />
<glyph glyph-name="semicolon" unicode="&#x3b;" horiz-adv-x="271" d="M103 415 L173 415 L173 500 L103 500 L103 415 Z M116 95 L188 95 L114 -140 L46 -140 L116 95 Z " />
<glyph glyph-name="less" unicode="&#x3c;" horiz-adv-x="656" d="M583 110 L114 323 L114 325 L583 537 L583 605 L38 358 L38 290 L583 42 L583 110 Z " />
<glyph glyph-name="equal" unicode="&#x3d;" horiz-adv-x="691" d="M618 213 L618 275 L73 275 L73 213 L618 213 Z M618 373 L618 435 L73 435 L73 373 L618 373 Z " />
<glyph glyph-name="greater" unicode="&#x3e;" horiz-adv-x="656" d="M618 290 L618 358 L73 605 L73 537 L542 325 L542 323 L73 110 L73 42 L618 290 Z " />
<glyph glyph-name="question" unicode="&#x3f;" horiz-adv-x="491" d="M271 0 L271 85 L201 85 L201 0 L271 0 Z M99 531 C114 603 169 648 245 648 C317 648 375 607 375 535 C375 478 343 449 306 421 C232 363 201 328 201 235 L201 190 L271 190 L271 235 C271 302 296 329 350 371 C401 410 447 450 447 535 C447 649 357 712 245 712 C136 712 57 648 36 544 L99 531 Z " />
<glyph glyph-name="at" unicode="&#x40;" horiz-adv-x="812" d="M416 476 C458 476 481 435 491 411 C484 369 476 326 469 284 C451 259 416 227 362 227 C329 227 300 266 300 322 C300 400 350 476 416 476 L416 476 Z M688 150 C624 88 542 52 424 52 C246 52 124 166 124 347 C124 517 241 648 416 648 C572 648 687 582 687 398 C687 295 624 226 572 226 C547 227 533 241 537 263 L581 525 L510 525 L502 481 L500 481 C487 510 459 540 416 540 C305 540 228 432 228 322 C228 229 283 162 371 162 C426 162 464 192 484 218 L486 218 C494 193 518 162 572 162 C642 162 759 257 759 398 C759 629 614 712 416 712 C198 712 52 553 52 347 C52 127 203 -12 424 -12 C560 -12 656 31 732 104 L688 150 Z " />
<glyph glyph-name="A" unicode="A" horiz-adv-x="690" d="M347 616 L503 248 L186 248 L345 616 L347 616 Z M159 186 L530 186 L609 0 L683 0 L383 700 L309 700 L6 0 L79 0 L159 186 Z " />
<glyph glyph-name="B" unicode="B" horiz-adv-x="617" d="M405 379 C476 394 523 457 523 534 C523 654 412 700 278 700 L98 700 L98 0 L291 0 C441 0 572 52 572 184 C572 282 510 356 405 377 L405 379 Z M168 339 L309 339 C426 339 500 285 500 184 C500 98 403 62 291 62 L168 62 L168 339 Z M168 638 L278 638 C373 638 451 608 451 534 C451 438 370 401 307 401 L168 401 L168 638 Z " />
<glyph glyph-name="C" unicode="C" horiz-adv-x="690" d="M611 152 C575 98 505 52 406 52 C240 52 119 178 119 350 C119 522 242 648 406 648 C487 648 563 617 599 566 L651 603 C604 670 507 712 406 712 C201 712 47 559 47 350 C47 141 198 -12 406 -12 C530 -12 618 47 664 116 L611 152 Z " />
<glyph glyph-name="D" unicode="D" horiz-adv-x="747" d="M98 0 L331 0 C506 0 699 117 699 351 C699 584 506 700 331 700 L98 700 L98 0 Z M168 638 L331 638 C472 638 627 541 627 351 C627 160 472 62 331 62 L168 62 L168 638 Z " />
<glyph glyph-name="E" unicode="E" horiz-adv-x="590" d="M168 62 L168 333 L508 333 L508 395 L168 395 L168 638 L532 638 L532 700 L98 700 L98 0 L544 0 L544 62 L168 62 Z " />
<glyph glyph-name="F" unicode="F" horiz-adv-x="557" d="M168 638 L520 638 L520 700 L98 700 L98 0 L168 0 L168 331 L495 331 L495 393 L168 393 L168 638 Z " />
<glyph glyph-name="G" unicode="G" horiz-adv-x="725" d="M655 620 C597 677 515 712 406 712 C201 712 47 559 47 350 C47 141 198 -12 406 -12 C495 -12 581 2 663 31 L663 349 L593 349 L593 76 C533 60 470 52 406 52 C240 52 119 178 119 350 C119 522 242 648 406 648 C497 648 564 620 610 574 L655 620 Z " />
<glyph glyph-name="H" unicode="H" horiz-adv-x="720" d="M168 0 L168 332 L552 332 L552 0 L622 0 L622 700 L552 700 L552 394 L168 394 L168 700 L98 700 L98 0 L168 0 Z " />
<glyph glyph-name="I" unicode="I" horiz-adv-x="266" d="M168 0 L168 700 L98 700 L98 0 L168 0 Z " />
<glyph glyph-name="J" unicode="J" horiz-adv-x="482" d="M20 129 C37 47 106 -12 207 -12 C359 -12 392 116 392 206 L392 700 L322 700 L322 206 C322 142 301 52 207 52 C140 52 94 91 82 142 L20 129 Z " />
<glyph glyph-name="K" unicode="K" horiz-adv-x="631" d="M168 0 L168 251 L290 378 L549 0 L631 0 L339 428 L600 700 L510 700 L170 344 L168 344 L168 700 L98 700 L98 0 L168 0 Z " />
<glyph glyph-name="L" unicode="L" horiz-adv-x="520" d="M98 0 L496 0 L496 62 L168 62 L168 700 L98 700 L98 0 Z " />
<glyph glyph-name="M" unicode="M" horiz-adv-x="889" d="M721 0 L791 0 L791 700 L699 700 L446 86 L444 86 L190 700 L98 700 L98 0 L168 0 L168 577 L170 577 L408 0 L482 0 L719 577 L721 577 L721 0 Z " />
<glyph glyph-name="N" unicode="N" horiz-adv-x="781" d="M611 80 L193 700 L98 700 L98 0 L168 0 L168 619 L170 619 L588 0 L683 0 L683 700 L613 700 L613 80 L611 80 Z " />
<glyph glyph-name="O" unicode="O" horiz-adv-x="812" d="M765 350 C765 559 611 712 406 712 C201 712 47 559 47 350 C47 141 201 -12 406 -12 C611 -12 765 141 765 350 L765 350 Z M693 350 C693 178 570 52 406 52 C242 52 119 178 119 350 C119 522 242 648 406 648 C570 648 693 522 693 350 L693 350 Z " />
<glyph glyph-name="P" unicode="P" horiz-adv-x="556" d="M274 638 C385 638 450 597 450 514 C450 432 388 387 274 387 L168 387 L168 638 L274 638 Z M168 0 L168 325 L274 325 C435 325 522 390 522 514 C522 641 430 700 274 700 L98 700 L98 0 L168 0 Z " />
<glyph glyph-name="Q" unicode="Q" horiz-adv-x="812" d="M397 -12 C433 -139 517 -217 627 -217 L627 -157 C555 -157 497 -99 467 -7 C641 20 765 162 765 350 C765 559 611 712 406 712 C201 712 47 559 47 350 C47 143 196 -8 397 -12 L397 -12 Z M693 350 C693 178 570 52 406 52 C242 52 119 178 119 350 C119 522 242 648 406 648 C570 648 693 522 693 350 L693 350 Z " />
<glyph glyph-name="R" unicode="R" horiz-adv-x="598" d="M496 0 L574 0 L376 335 C478 356 533 417 533 515 C533 642 441 700 285 700 L98 700 L98 0 L168 0 L168 327 C291 327 297 327 302 327 L496 0 Z M168 638 L285 638 C396 638 461 598 461 515 C461 433 399 389 285 389 L168 389 L168 638 Z " />
<glyph glyph-name="S" unicode="S" horiz-adv-x="522" d="M462 644 C462 644 397 712 275 712 C146 712 57 633 57 531 C57 409 154 372 247 326 C321 290 405 259 405 167 C405 103 352 52 265 52 C151 52 91 120 91 120 L43 78 C43 78 122 -12 265 -12 C397 -12 477 70 477 167 C477 302 377 336 279 384 C203 421 129 445 129 531 C129 597 189 648 275 648 C370 648 416 600 416 600 L462 644 Z " />
<glyph glyph-name="T" unicode="T" horiz-adv-x="584" d="M22 638 L257 638 L257 0 L327 0 L327 638 L562 638 L562 700 L22 700 L22 638 Z " />
<glyph glyph-name="U" unicode="U" horiz-adv-x="698" d="M89 700 L89 265 C89 149 141 -12 349 -12 C557 -12 609 149 609 265 L609 700 L539 700 L539 265 C539 176 499 52 349 52 C199 52 159 176 159 265 L159 700 L89 700 Z " />
<glyph glyph-name="V" unicode="V" horiz-adv-x="658" d="M20 700 L282 0 L376 0 L638 700 L564 700 L330 70 L328 70 L94 700 L20 700 Z " />
<glyph glyph-name="W" unicode="W" horiz-adv-x="999" d="M230 0 L323 0 L500 610 L502 610 L678 0 L771 0 L970 700 L897 700 L725 90 L723 90 L547 700 L455 700 L278 89 L276 89 L102 700 L29 700 L230 0 Z " />
<glyph glyph-name="X" unicode="X" horiz-adv-x="610" d="M521 0 L604 0 L347 365 L581 700 L498 700 L307 423 L305 423 L112 700 L29 700 L262 368 L7 0 L90 0 L302 310 L304 310 L521 0 Z " />
<glyph glyph-name="Y" unicode="Y" horiz-adv-x="648" d="M359 0 L359 294 L626 700 L546 700 L325 361 L323 361 L102 700 L22 700 L289 294 L289 0 L359 0 Z " />
<glyph glyph-name="Z" unicode="Z" horiz-adv-x="574" d="M45 638 L446 638 L446 636 L34 59 L34 0 L538 0 L538 62 L120 62 L120 64 L532 641 L532 700 L45 700 L45 638 Z " />
<glyph glyph-name="bracketleft" unicode="&#x5b;" horiz-adv-x="290" d="M169 662 L231 662 L231 724 L99 724 L99 -154 L231 -154 L231 -92 L169 -92 L169 662 Z " />
<glyph glyph-name="backslash" unicode="&#x5c;" horiz-adv-x="439" d="M107 708 L32 708 L331 -8 L406 -8 L107 708 Z " />
<glyph glyph-name="bracketright" unicode="&#x5d;" horiz-adv-x="290" d="M59 -92 L59 -154 L191 -154 L191 724 L59 724 L59 662 L121 662 L121 -92 L59 -92 Z " />
<glyph glyph-name="asciicircum" unicode="&#x5e;" horiz-adv-x="617" d="M120 272 L308 629 L310 629 L497 272 L574 272 L347 700 L270 700 L43 272 L120 272 Z " />
<glyph glyph-name="underscore" unicode="&#x5f;" horiz-adv-x="494" d="M0 -130 L494 -130 L494 -68 L0 -68 L0 -130 Z " />
<glyph glyph-name="grave" unicode="&#x60;" horiz-adv-x="301" d="M251 602 L135 744 L50 744 L171 602 L251 602 Z " />
<glyph glyph-name="a" unicode="a" horiz-adv-x="540" d="M228 50 C170 50 104 68 104 125 C104 219 234 241 386 245 L386 115 C343 79 289 50 228 50 L228 50 Z M507 63 C507 63 500 62 497 62 C475 62 454 76 454 114 L454 331 C454 452 367 512 260 512 C175 512 104 481 64 441 L108 397 C138 427 193 450 260 450 C328 450 386 411 386 331 L386 305 C197 301 34 271 34 125 C34 21 137 -12 228 -12 C297 -12 355 16 404 54 L406 54 C423 15 459 0 497 0 C511 0 518 2 518 2 L507 63 Z " />
<glyph glyph-name="b" unicode="b" horiz-adv-x="603" d="M78 0 L146 0 L146 50 L148 50 C189 11 242 -12 305 -12 C446 -12 561 100 561 250 C561 400 446 512 305 512 C242 512 189 489 148 450 L146 450 L146 730 L78 730 L78 0 Z M305 450 C407 450 491 365 491 250 C491 135 407 50 305 50 C239 50 182 82 146 135 L146 362 C183 416 239 450 305 450 L305 450 Z " />
<glyph glyph-name="c" unicode="c" horiz-adv-x="525" d="M494 426 C458 478 395 512 307 512 C161 512 42 414 42 250 C42 95 151 -12 313 -12 C434 -12 498 74 498 74 L448 111 C448 111 403 50 313 50 C193 50 112 132 112 250 C112 375 200 450 307 450 C373 450 418 427 443 391 L494 426 Z " />
<glyph glyph-name="d" unicode="d" horiz-adv-x="617" d="M475 66 C483 18 530 0 568 0 C582 0 589 2 589 2 C585 22 582 43 578 63 C578 63 571 62 568 62 C546 62 525 76 525 114 L525 730 L457 730 L457 450 L455 450 C413 489 361 512 298 512 C157 512 42 400 42 250 C42 100 157 -12 298 -12 C369 -12 430 17 473 66 L475 66 Z M298 450 C363 450 420 416 457 362 L457 135 C421 82 363 50 298 50 C196 50 112 135 112 250 C112 365 196 450 298 450 L298 450 Z " />
<glyph glyph-name="e" unicode="e" horiz-adv-x="573" d="M527 239 C527 239 531 278 531 300 C531 415 456 512 307 512 C161 512 42 414 42 250 C42 95 162 -12 324 -12 C444 -12 521 58 521 58 L479 104 C479 104 420 50 324 50 C207 50 118 126 112 239 L527 239 Z M307 450 C409 450 461 380 461 299 L117 299 C137 394 215 450 307 450 L307 450 Z " />
<glyph glyph-name="f" unicode="f" horiz-adv-x="260" d="M265 729 C252 731 232 734 218 734 C161 734 90 729 90 617 L90 500 L38 500 L38 440 L90 440 L90 0 L158 0 L158 440 L244 440 L244 500 L158 500 L158 617 C158 669 191 672 218 672 C230 672 246 670 256 668 L265 729 Z " />
<glyph glyph-name="g" unicode="g" horiz-adv-x="589" d="M443 500 L443 450 L441 450 C401 488 351 512 291 512 C154 512 42 403 42 256 C42 109 154 0 291 0 C351 0 402 24 441 62 L443 62 L443 12 C443 -103 341 -148 237 -148 C192 -148 157 -140 123 -126 L100 -183 C140 -200 184 -210 237 -210 C377 -210 511 -148 511 12 L511 500 L443 500 Z M291 62 C188 62 104 145 104 256 C104 367 188 450 291 450 C354 450 408 416 443 365 L443 150 C407 98 354 62 291 62 L291 62 Z " />
<glyph glyph-name="h" unicode="h" horiz-adv-x="614" d="M145 0 L145 362 C187 422 239 450 315 450 C421 450 475 393 475 306 L475 0 L543 0 L543 306 C543 430 468 512 315 512 C252 512 188 482 147 443 L145 443 L145 730 L77 730 L77 0 L145 0 Z " />
<glyph glyph-name="i" unicode="i" horiz-adv-x="228" d="M80 615 L148 615 L148 700 L80 700 L80 615 Z M80 0 L148 0 L148 500 L80 500 L80 0 Z " />
<glyph glyph-name="j" unicode="j" horiz-adv-x="228" d="M-11 -204 C90 -204 148 -194 148 -71 L148 500 L80 500 L80 -71 C80 -136 46 -142 -11 -142 L-11 -204 Z M80 615 L148 615 L148 700 L80 700 L80 615 Z " />
<glyph glyph-name="k" unicode="k" horiz-adv-x="529" d="M145 730 L77 730 L77 0 L145 0 L145 176 L236 257 L443 0 L525 0 L284 298 L516 500 L419 500 L147 260 L145 260 L145 730 Z " />
<glyph glyph-name="l" unicode="l" horiz-adv-x="232" d="M77 106 C77 28 120 0 166 0 C180 0 187 2 187 2 L176 63 C150 59 145 85 145 106 L145 730 L77 730 L77 106 Z " />
<glyph glyph-name="m" unicode="m" horiz-adv-x="890" d="M145 0 L145 373 C169 418 222 450 279 450 C360 450 414 415 414 360 L414 0 L482 0 L482 375 C501 419 558 450 606 450 C698 450 751 393 751 306 L751 0 L819 0 L819 306 C819 421 735 512 617 512 C555 512 483 474 452 425 L450 425 C422 479 370 512 279 512 C228 512 183 486 147 448 L145 448 L145 500 L77 500 L77 0 L145 0 Z " />
<glyph glyph-name="n" unicode="n" horiz-adv-x="615" d="M146 0 L146 362 C188 422 240 450 316 450 C422 450 476 393 476 306 L476 0 L544 0 L544 306 C544 430 469 512 316 512 C253 512 189 482 148 443 L146 443 L146 500 L78 500 L78 0 L146 0 Z " />
<glyph glyph-name="o" unicode="o" horiz-adv-x="615" d="M573 250 C573 400 463 512 307 512 C153 512 42 400 42 250 C42 100 153 -12 307 -12 C463 -12 573 100 573 250 L573 250 Z M503 250 C503 135 422 50 307 50 C194 50 112 135 112 250 C112 365 194 450 307 450 C422 450 503 365 503 250 L503 250 Z " />
<glyph glyph-name="p" unicode="p" horiz-adv-x="617" d="M142 434 C134 482 87 500 49 500 C35 500 28 498 28 498 L39 437 C39 437 46 438 49 438 C71 438 92 424 92 386 L92 -200 L160 -200 L160 50 L162 50 C204 11 256 -12 319 -12 C460 -12 575 100 575 250 C575 400 460 512 319 512 C248 512 187 483 144 434 L142 434 Z M319 50 C254 50 197 84 160 138 L160 365 C196 418 254 450 319 450 C421 450 505 365 505 250 C505 135 421 50 319 50 L319 50 Z " />
<glyph glyph-name="q" unicode="q" horiz-adv-x="603" d="M525 500 L457 500 L457 450 L455 450 C414 489 361 512 298 512 C157 512 42 400 42 250 C42 100 157 -12 298 -12 C361 -12 414 11 455 50 L457 50 L457 -200 L525 -200 L525 500 Z M298 50 C196 50 112 135 112 250 C112 365 196 450 298 450 C364 450 421 418 457 365 L457 138 C420 84 364 50 298 50 L298 50 Z " />
<glyph glyph-name="r" unicode="r" horiz-adv-x="344" d="M146 0 L146 368 C158 399 213 442 281 442 C298 442 311 441 323 438 L339 498 C321 503 302 504 281 504 C229 504 182 477 148 441 L146 441 L146 500 L78 500 L78 0 L146 0 Z " />
<glyph glyph-name="s" unicode="s" horiz-adv-x="432" d="M379 457 C379 457 327 512 228 512 C127 512 49 454 49 373 C49 279 127 252 206 225 C264 205 323 185 323 125 C323 84 286 50 220 50 C129 50 83 102 83 102 L37 61 C37 61 102 -12 220 -12 C332 -12 393 50 393 125 C393 222 307 256 228 283 C174 302 119 321 119 373 C119 418 167 450 228 450 C300 450 334 414 334 414 L379 457 Z " />
<glyph glyph-name="t" unicode="t" horiz-adv-x="292" d="M97 440 L97 113 C97 1 168 -4 225 -4 C239 -4 259 -1 272 1 L263 62 C253 60 237 58 225 58 C198 58 165 61 165 113 L165 440 L254 440 L254 500 L165 500 L165 676 L97 676 L97 500 L23 500 L23 440 L97 440 Z " />
<glyph glyph-name="u" unicode="u" horiz-adv-x="615" d="M469 500 L469 138 C427 78 375 50 299 50 C193 50 139 107 139 194 L139 500 L71 500 L71 194 C71 70 146 -12 299 -12 C362 -12 426 18 467 57 L469 57 L469 0 L537 0 L537 500 L469 500 Z " />
<glyph glyph-name="v" unicode="v" horiz-adv-x="561" d="M281 78 L279 78 L92 500 L19 500 L244 0 L316 0 L544 500 L471 500 L281 78 Z " />
<glyph glyph-name="w" unicode="w" horiz-adv-x="817" d="M591 100 L589 100 L442 500 L371 500 L227 103 L225 103 L97 500 L27 500 L190 0 L261 0 L407 404 L409 404 L557 0 L628 0 L789 500 L719 500 L591 100 Z " />
<glyph glyph-name="x" unicode="x" horiz-adv-x="500" d="M406 0 L487 0 L290 259 L473 500 L392 500 L250 312 L248 312 L108 500 L27 500 L207 262 L13 0 L94 0 L247 209 L249 209 L406 0 Z " />
<glyph glyph-name="y" unicode="y" horiz-adv-x="565" d="M21 500 L247 1 L213 -73 C185 -133 160 -144 105 -144 C87 -144 69 -142 53 -139 L39 -197 C61 -202 84 -204 105 -204 C203 -204 238 -179 275 -97 L547 500 L474 500 L284 80 L282 80 L94 500 L21 500 Z " />
<glyph glyph-name="z" unicode="z" horiz-adv-x="472" d="M120 62 L427 447 L427 500 L47 500 L47 440 L339 440 L339 438 L32 53 L32 0 L438 0 L438 60 L120 60 L120 62 Z " />
<glyph glyph-name="braceleft" unicode="&#x7b;" horiz-adv-x="282" d="M224 -92 C190 -92 157 -74 157 -22 L157 167 C157 220 147 269 118 284 L118 286 C147 300 157 350 157 402 L157 591 C157 643 190 662 224 662 L234 662 L234 724 L224 724 C153 724 87 691 87 591 L87 402 C87 333 82 316 44 316 L44 254 C82 254 87 237 87 167 L87 -22 C87 -122 153 -154 224 -154 L234 -154 L234 -92 L224 -92 Z " />
<glyph glyph-name="bar" unicode="&#x7c;" horiz-adv-x="264" d="M97 -247 L167 -247 L167 742 L97 742 L97 -247 Z " />
<glyph glyph-name="braceright" unicode="&#x7d;" horiz-adv-x="282" d="M48 -92 L48 -154 L58 -154 C129 -154 195 -122 195 -22 L195 167 C195 237 200 254 238 254 L238 316 C200 316 195 333 195 402 L195 591 C195 691 129 724 58 724 L48 724 L48 662 L58 662 C92 662 125 643 125 591 L125 402 C125 350 135 300 164 286 L164 284 C135 269 125 220 125 167 L125 -22 C125 -74 92 -92 58 -92 L48 -92 Z " />
<glyph glyph-name="asciitilde" unicode="&#x7e;" horiz-adv-x="671" d="M329 290 C365 269 407 251 453 251 C549 251 573 313 598 393 L531 393 C516 348 498 315 453 315 C428 315 395 329 367 345 C319 373 274 396 219 396 C127 396 101 334 77 254 L144 254 C159 299 176 332 219 332 C252 332 289 313 329 290 L329 290 Z " />
<glyph glyph-name="nbspace" unicode="&#xa0;" horiz-adv-x="272" d="" />
<glyph glyph-name="exclamdown" unicode="&#xa1;" horiz-adv-x="254" d="M162 -200 L162 310 L92 310 L92 -200 L162 -200 Z M162 415 L162 500 L92 500 L92 415 L162 415 Z " />
<glyph glyph-name="cent" unicode="&#xa2;" horiz-adv-x="557" d="M457 111 C457 111 412 50 322 50 C202 50 121 132 121 250 C121 375 209 450 316 450 C382 450 427 427 452 391 L503 426 C469 474 413 507 335 511 L335 591 L267 591 L267 508 C144 488 51 395 51 250 C51 113 136 14 267 -7 L267 -91 L335 -91 L335 -12 C447 -6 507 74 507 74 L457 111 Z " />
<glyph glyph-name="sterling" unicode="&#xa3;" horiz-adv-x="535" d="M449 676 C418 694 379 712 334 712 C228 712 150 629 149 510 C149 468 148 426 148 385 L58 385 L58 323 L147 323 C139 211 97 85 54 27 L92 -13 C135 10 166 17 197 17 C238 17 278 -12 344 -12 C401 -12 444 3 499 48 L458 98 C416 63 384 52 344 52 C269 61 248 82 198 82 C187 82 170 80 155 78 L153 79 C182 155 210 241 216 323 L375 323 L375 385 L218 385 C218 426 218 468 218 510 C218 591 269 648 334 648 C365 648 394 634 417 621 L449 676 Z " />
<glyph glyph-name="currency" unicode="&#xa4;" horiz-adv-x="717" d="M61 53 L109 11 L208 109 C248 78 299 59 360 59 C420 59 471 77 510 109 L610 11 L658 55 L555 156 C584 197 600 249 600 306 C600 362 583 414 553 455 L652 554 L604 596 L509 501 C470 532 419 550 360 550 C299 550 248 531 208 500 L115 597 L67 555 L165 453 C136 412 120 361 120 306 C120 250 135 198 164 156 L61 53 Z M360 486 C463 486 528 405 528 306 C528 205 463 123 360 123 C257 123 192 205 192 306 C192 405 257 486 360 486 L360 486 Z " />
<glyph glyph-name="yen" unicode="&#xa5;" horiz-adv-x="666" d="M149 261 L298 261 L298 181 L149 181 L149 119 L298 119 L298 0 L368 0 L368 119 L512 119 L512 181 L368 181 L368 261 L512 261 L512 323 L387 323 L635 700 L555 700 L334 361 L332 361 L111 700 L31 700 L279 323 L149 323 L149 261 Z " />
<glyph glyph-name="brokenbar" unicode="&#xa6;" horiz-adv-x="270" d="M100 321 L170 321 L170 667 L100 667 L100 321 Z M100 -173 L170 -173 L170 173 L100 173 L100 -173 Z " />
<glyph glyph-name="section" unicode="&#xa7;" horiz-adv-x="488" d="M423 658 C423 658 369 710 268 712 C159 714 79 648 79 566 C79 516 104 481 139 453 L139 451 C89 423 59 378 59 330 C59 236 138 195 219 153 C283 120 348 88 348 23 C348 -17 306 -59 238 -59 C145 -59 97 -7 97 -7 L50 -51 C50 -51 117 -123 238 -123 C350 -123 420 -49 420 23 C420 76 392 113 356 144 L356 146 C405 173 435 219 435 265 C435 364 352 406 270 448 C210 479 151 510 151 566 C151 609 198 648 267 648 C341 648 378 612 378 612 L423 658 Z M238 392 C300 360 363 329 363 265 C363 233 336 199 289 189 C277 196 265 202 253 209 C192 241 131 274 131 330 C131 365 160 397 206 408 C216 403 227 397 238 392 L238 392 Z " />
<glyph glyph-name="dieresis" unicode="&#xa8;" horiz-adv-x="360" d="M50 615 L120 615 L120 700 L50 700 L50 615 Z M240 615 L310 615 L310 700 L240 700 L240 615 Z " />
<glyph glyph-name="copyright" unicode="&#xa9;" horiz-adv-x="836" d="M417 712 C192 712 51 550 51 351 C51 150 192 -12 417 -12 C644 -12 785 150 785 351 C785 550 644 712 417 712 L417 712 Z M417 648 C600 648 713 515 713 351 C713 185 600 52 417 52 C236 52 123 185 123 351 C123 515 236 648 417 648 L417 648 Z M534 248 C515 221 480 198 429 198 C345 198 284 264 284 353 C284 443 346 509 429 509 C471 509 508 493 526 469 L578 507 C549 547 491 573 429 573 C305 573 212 480 212 353 C212 227 303 134 429 134 C504 134 557 170 586 211 L534 248 Z " />
<glyph glyph-name="ordfeminine" unicode="&#xaa;" horiz-adv-x="389" d="M118 630 C131 641 154 650 183 650 C204 650 224 637 224 611 L224 604 C132 600 57 580 57 496 C57 437 115 419 165 419 C202 419 229 436 244 458 L246 458 C254 435 276 426 322 426 L328 426 L328 486 L322 486 C299 486 292 490 292 502 L292 611 C292 678 243 712 183 712 C136 712 96 695 74 672 L118 630 Z M165 481 C147 481 127 486 127 505 C127 532 169 542 224 545 L224 502 C206 489 185 481 165 481 L165 481 Z " />
<glyph glyph-name="guillemotleft" unicode="&#xab;" horiz-adv-x="517" d="M460 51 L326 255 L461 462 L381 462 L246 256 L380 51 L460 51 Z M265 51 L131 255 L266 462 L186 462 L51 256 L185 51 L265 51 Z " />
<glyph glyph-name="logicalnot" unicode="&#xac;" horiz-adv-x="651" d="M572 431 L59 431 L59 369 L502 369 L502 139 L572 139 L572 431 Z " />
<glyph glyph-name="uni00AD" unicode="&#xad;" horiz-adv-x="348" d="M54 229 L294 229 L294 291 L54 291 L54 229 Z " />
<glyph glyph-name="registered" unicode="&#xae;" horiz-adv-x="836" d="M417 712 C192 712 51 550 51 351 C51 150 192 -12 417 -12 C644 -12 785 150 785 351 C785 550 644 712 417 712 L417 712 Z M417 648 C600 648 713 515 713 351 C713 185 600 52 417 52 C236 52 123 185 123 351 C123 515 236 648 417 648 L417 648 Z M279 141 L349 141 L349 331 C398 331 407 331 408 331 L520 141 L598 141 L480 341 C531 357 558 394 558 450 C558 530 502 566 408 566 L279 566 L279 141 Z M349 504 L408 504 C458 504 486 486 486 450 C486 414 460 393 408 393 L349 393 L349 504 Z " />
<glyph glyph-name="macron" unicode="&#xaf;" horiz-adv-x="367" d="M50 631 L317 631 L317 693 L50 693 L50 631 Z " />
<glyph glyph-name="degree" unicode="&#xb0;" horiz-adv-x="382" d="M329 574 C329 654 271 712 191 712 C112 712 53 654 53 574 C53 495 112 436 191 436 C271 436 329 495 329 574 L329 574 Z M258 574 C258 531 230 499 191 499 C153 499 124 531 124 574 C124 617 153 649 191 649 C230 649 258 617 258 574 L258 574 Z " />
<glyph glyph-name="plusminus" unicode="&#xb1;" horiz-adv-x="707" d="M81 372 L319 372 L319 207 L389 207 L389 372 L626 372 L626 434 L389 434 L389 602 L319 602 L319 434 L81 434 L81 372 Z M81 20 L626 20 L626 82 L81 82 L81 20 Z " />
<glyph glyph-name="twosuperior" unicode="&#xb2;" horiz-adv-x="434" d="M138 348 C138 436 361 473 361 591 C361 651 307 712 215 712 C115 712 73 631 73 631 C92 621 110 612 129 602 C129 602 153 649 215 649 C263 649 290 620 290 591 C290 520 67 468 67 352 L67 287 L361 287 L361 348 L138 348 Z " />
<glyph glyph-name="threesuperior" unicode="&#xb3;" horiz-adv-x="411" d="M167 529 L167 468 L207 468 C236 468 282 449 282 405 C282 359 250 338 197 338 C139 338 115 373 107 386 L52 358 C64 335 103 275 197 275 C292 275 353 318 353 405 C353 457 316 490 282 500 L282 502 C311 512 342 541 342 589 C342 649 297 711 200 711 C117 711 80 665 68 645 L121 614 C129 624 149 648 200 648 C249 648 271 619 271 589 C271 552 238 529 207 529 L167 529 Z " />
<glyph glyph-name="acute" unicode="&#xb4;" horiz-adv-x="301" d="M251 744 L166 744 L50 602 L130 602 L251 744 Z " />
<glyph glyph-name="mu" unicode="&#xb5;" horiz-adv-x="660" d="M94 500 L94 -200 L162 -200 L162 41 L164 41 C195 5 251 -12 322 -12 C385 -12 449 18 490 57 L492 57 L492 0 L560 0 L560 500 L492 500 L492 138 C450 78 398 50 322 50 C216 50 162 107 162 194 L162 500 L94 500 Z " />
<glyph glyph-name="paragraph" unicode="&#xb6;" horiz-adv-x="635" d="M259 700 C120 701 33 625 33 496 C33 380 120 312 259 312 L259 -125 L329 -125 L329 638 L453 638 L453 -125 L523 -125 L523 700 L259 700 Z " />
<glyph glyph-name="periodcentered" unicode="&#xb7;" horiz-adv-x="210" d="M70 292 L140 292 L140 377 L70 377 L70 292 Z " />
<glyph glyph-name="cedilla" unicode="&#xb8;" horiz-adv-x="302" d="M121 0 L65 -83 L104 -122 C119 -113 129 -110 145 -110 C160 -110 182 -116 182 -131 C182 -146 160 -150 145 -150 C118 -150 93 -144 82 -138 L50 -191 C68 -202 107 -212 145 -212 C195 -212 252 -192 252 -133 C252 -79 198 -63 166 -63 C155 -63 146 -66 140 -69 L138 -68 L198 0 L121 0 Z " />
<glyph glyph-name="onesuperior" unicode="&#xb9;" horiz-adv-x="268" d="M76 595 L119 630 L121 630 L121 287 L190 287 L190 700 L103 700 L33 643 L76 595 Z " />
<glyph glyph-name="ordmasculine" unicode="&#xba;" horiz-adv-x="403" d="M350 565 C350 649 288 712 201 712 C115 712 53 649 53 565 C53 482 115 419 201 419 C288 419 350 482 350 565 L350 565 Z M278 565 C278 518 246 483 201 483 C157 483 125 518 125 565 C125 612 157 648 201 648 C246 648 278 612 278 565 L278 565 Z " />
<glyph glyph-name="guillemotright" unicode="&#xbb;" horiz-adv-x="517" d="M466 256 L331 462 L251 462 L386 255 L252 51 L332 51 L466 256 Z M271 256 L136 462 L56 462 L191 255 L57 51 L137 51 L271 256 Z " />
<glyph glyph-name="onequarter" unicode="&#xbc;" horiz-adv-x="774" d="M428 89 L613 89 L613 0 L683 0 L683 89 L731 89 L731 151 L683 151 L683 422 L606 422 L428 171 L428 89 Z M613 151 L500 151 L500 153 L611 313 L613 313 L613 151 Z M557 726 L106 -17 L184 -17 L635 726 L557 726 Z M75 603 L118 638 L120 638 L120 286 L189 286 L189 708 L102 708 L32 651 L75 603 Z " />
<glyph glyph-name="onehalf" unicode="&#xbd;" horiz-adv-x="833" d="M557 726 L106 -17 L184 -17 L635 726 L557 726 Z M489 0 L783 0 L783 61 L560 61 C560 153 783 190 783 308 C783 368 729 429 637 429 C537 429 495 348 495 348 L551 319 C551 319 575 366 637 366 C685 366 712 337 712 308 C712 238 489 183 489 65 L489 0 Z M75 603 L118 638 L120 638 L120 286 L189 286 L189 708 L102 708 L32 651 L75 603 Z " />
<glyph glyph-name="threequarters" unicode="&#xbe;" horiz-adv-x="847" d="M507 89 L692 89 L692 0 L762 0 L762 89 L810 89 L810 151 L762 151 L762 422 L685 422 L507 171 L507 89 Z M692 151 L579 151 L579 153 L690 313 L692 313 L692 151 Z M636 726 L185 -17 L263 -17 L714 726 L636 726 Z M152 538 L152 477 L192 477 C221 477 267 458 267 414 C267 368 235 347 182 347 C124 347 100 382 92 395 L37 367 C49 344 88 284 182 284 C277 284 338 326 338 414 C338 466 301 499 267 509 L267 511 C296 521 327 550 327 598 C327 658 282 720 185 720 C102 720 65 674 53 654 L106 623 C114 633 134 657 185 657 C234 657 256 628 256 598 C256 561 223 538 192 538 L152 538 Z " />
<glyph glyph-name="questiondown" unicode="&#xbf;" horiz-adv-x="481" d="M214 500 L214 415 L284 415 L284 500 L214 500 Z M386 -29 C371 -101 316 -146 240 -146 C168 -146 110 -105 110 -33 C110 24 142 53 179 81 C253 139 284 174 284 267 L284 310 L214 310 L214 267 C214 200 189 173 135 131 C84 92 38 52 38 -33 C38 -147 128 -210 240 -210 C349 -210 428 -146 449 -42 L386 -29 Z " />
<glyph glyph-name="Agrave" unicode="&#xc0;" horiz-adv-x="690" d="M383 700 L309 700 L6 0 L79 0 L159 186 L530 186 L609 0 L683 0 L383 700 Z M503 248 L186 248 L345 616 L347 616 L503 248 Z M184 899 L305 757 L385 757 L269 899 L184 899 Z " />
<glyph glyph-name="Aacute" unicode="&#xc1;" horiz-adv-x="690" d="M383 700 L309 700 L6 0 L79 0 L159 186 L530 186 L609 0 L683 0 L383 700 Z M503 248 L186 248 L345 616 L347 616 L503 248 Z M420 899 L304 757 L384 757 L505 899 L420 899 Z " />
<glyph glyph-name="Acircumflex" unicode="&#xc2;" horiz-adv-x="690" d="M383 700 L309 700 L6 0 L79 0 L159 186 L530 186 L609 0 L683 0 L383 700 Z M503 248 L186 248 L345 616 L347 616 L503 248 Z M497 758 L382 906 L305 906 L191 758 L274 758 L343 846 L345 846 L414 758 L497 758 Z " />
<glyph glyph-name="Atilde" unicode="&#xc3;" horiz-adv-x="690" d="M383 700 L309 700 L6 0 L79 0 L159 186 L530 186 L609 0 L683 0 L383 700 Z M503 248 L186 248 L345 616 L347 616 L503 248 Z M251 778 C257 800 271 813 284 813 C301 813 319 803 338 792 C360 780 387 769 413 769 C460 769 495 799 509 865 L443 865 C437 844 424 833 411 833 C400 833 383 841 370 848 C345 862 313 877 282 877 C237 877 199 845 186 778 L251 778 Z " />
<glyph glyph-name="Adieresis" unicode="&#xc4;" horiz-adv-x="690" d="M383 700 L309 700 L6 0 L79 0 L159 186 L530 186 L609 0 L683 0 L383 700 Z M503 248 L186 248 L345 616 L347 616 L503 248 Z M216 800 L286 800 L286 885 L216 885 L216 800 Z M406 800 L476 800 L476 885 L406 885 L406 800 Z " />
<glyph glyph-name="Aring" unicode="&#xc5;" horiz-adv-x="690" d="M383 700 L309 700 L6 0 L79 0 L159 186 L530 186 L609 0 L683 0 L383 700 Z M503 248 L186 248 L345 616 L347 616 L503 248 Z M441 842 C441 895 397 936 346 936 C294 936 251 895 251 842 C251 788 294 748 346 748 C397 748 441 788 441 842 L441 842 Z M380 842 C380 823 364 809 346 809 C327 809 312 823 312 842 C312 861 327 875 346 875 C364 875 380 861 380 842 L380 842 Z " />
<glyph glyph-name="AE" unicode="&#xc6;" horiz-adv-x="995" d="M-4 0 L77 0 L199 188 L503 188 L503 0 L949 0 L949 62 L573 62 L573 333 L913 333 L913 395 L573 395 L573 638 L937 638 L937 700 L452 700 L-4 0 Z M493 638 L503 638 L503 250 L240 250 L493 638 Z " />
<glyph glyph-name="Ccedilla" unicode="&#xc7;" horiz-adv-x="690" d="M611 152 C575 98 505 52 406 52 C240 52 119 178 119 350 C119 522 242 648 406 648 C487 648 563 617 599 566 L651 603 C604 670 507 712 406 712 C201 712 47 559 47 350 C47 160 171 17 349 -8 L299 -83 L338 -122 C353 -113 363 -110 379 -110 C394 -110 416 -116 416 -131 C416 -146 394 -150 379 -150 C352 -150 327 -144 316 -138 L284 -191 C302 -202 341 -212 379 -212 C429 -212 486 -192 486 -133 C486 -79 432 -63 400 -63 C389 -63 380 -66 374 -69 L372 -68 L421 -11 C537 -7 620 50 664 116 L611 152 Z " />
<glyph glyph-name="Egrave" unicode="&#xc8;" horiz-adv-x="590" d="M168 62 L168 333 L508 333 L508 395 L168 395 L168 638 L532 638 L532 700 L98 700 L98 0 L544 0 L544 62 L168 62 Z M305 757 L385 757 L269 899 L184 899 L305 757 Z " />
<glyph glyph-name="Eacute" unicode="&#xc9;" horiz-adv-x="590" d="M168 62 L168 333 L508 333 L508 395 L168 395 L168 638 L532 638 L532 700 L98 700 L98 0 L544 0 L544 62 L168 62 Z M456 899 L371 899 L255 757 L335 757 L456 899 Z " />
<glyph glyph-name="Ecircumflex" unicode="&#xca;" horiz-adv-x="590" d="M168 62 L168 333 L508 333 L508 395 L168 395 L168 638 L532 638 L532 700 L98 700 L98 0 L544 0 L544 62 L168 62 Z M166 758 L249 758 L318 846 L320 846 L389 758 L472 758 L357 906 L280 906 L166 758 Z " />
<glyph glyph-name="Edieresis" unicode="&#xcb;" horiz-adv-x="590" d="M168 62 L168 333 L508 333 L508 395 L168 395 L168 638 L532 638 L532 700 L98 700 L98 0 L544 0 L544 62 L168 62 Z M189 800 L259 800 L259 885 L189 885 L189 800 Z M379 800 L449 800 L449 885 L379 885 L379 800 Z " />
<glyph glyph-name="Igrave" unicode="&#xcc;" horiz-adv-x="266" d="M98 0 L168 0 L168 700 L98 700 L98 0 Z M93 757 L173 757 L57 899 L-28 899 L93 757 Z " />
<glyph glyph-name="Iacute" unicode="&#xcd;" horiz-adv-x="266" d="M98 0 L168 0 L168 700 L98 700 L98 0 Z M93 757 L173 757 L294 899 L209 899 L93 757 Z " />
<glyph glyph-name="Icircumflex" unicode="&#xce;" horiz-adv-x="266" d="M98 0 L168 0 L168 700 L98 700 L98 0 Z M-20 758 L63 758 L132 846 L134 846 L203 758 L286 758 L171 906 L94 906 L-20 758 Z " />
<glyph glyph-name="Idieresis" unicode="&#xcf;" horiz-adv-x="266" d="M98 0 L168 0 L168 700 L98 700 L98 0 Z M3 800 L73 800 L73 885 L3 885 L3 800 Z M193 800 L263 800 L263 885 L193 885 L193 800 Z " />
<glyph glyph-name="Eth" unicode="&#xd0;" horiz-adv-x="754" d="M33 338 L105 338 L105 0 L338 0 C513 0 706 117 706 351 C706 584 513 700 338 700 L105 700 L105 400 L33 400 L33 338 Z M175 638 L338 638 C479 638 634 541 634 351 C634 160 479 62 338 62 L175 62 L175 338 L431 338 L431 400 L175 400 L175 638 Z " />
<glyph glyph-name="Ntilde" unicode="&#xd1;" horiz-adv-x="781" d="M297 778 C303 800 317 813 330 813 C347 813 365 803 384 792 C406 780 433 769 459 769 C506 769 541 799 555 865 L489 865 C483 844 470 833 457 833 C446 833 429 841 416 848 C391 862 359 877 328 877 C283 877 245 845 232 778 L297 778 Z M193 700 L98 700 L98 0 L168 0 L168 619 L170 619 L588 0 L683 0 L683 700 L613 700 L613 80 L611 80 L193 700 Z " />
<glyph glyph-name="Ograve" unicode="&#xd2;" horiz-adv-x="812" d="M765 350 C765 559 611 712 406 712 C201 712 47 559 47 350 C47 141 201 -12 406 -12 C611 -12 765 141 765 350 L765 350 Z M693 350 C693 178 570 52 406 52 C242 52 119 178 119 350 C119 522 242 648 406 648 C570 648 693 522 693 350 L693 350 Z M407 757 L487 757 L371 899 L286 899 L407 757 Z " />
<glyph glyph-name="Oacute" unicode="&#xd3;" horiz-adv-x="812" d="M765 350 C765 559 611 712 406 712 C201 712 47 559 47 350 C47 141 201 -12 406 -12 C611 -12 765 141 765 350 L765 350 Z M693 350 C693 178 570 52 406 52 C242 52 119 178 119 350 C119 522 242 648 406 648 C570 648 693 522 693 350 L693 350 Z M543 899 L458 899 L342 757 L422 757 L543 899 Z " />
<glyph glyph-name="Ocircumflex" unicode="&#xd4;" horiz-adv-x="812" d="M765 350 C765 559 611 712 406 712 C201 712 47 559 47 350 C47 141 201 -12 406 -12 C611 -12 765 141 765 350 L765 350 Z M693 350 C693 178 570 52 406 52 C242 52 119 178 119 350 C119 522 242 648 406 648 C570 648 693 522 693 350 L693 350 Z M253 758 L336 758 L405 846 L407 846 L476 758 L559 758 L444 906 L367 906 L253 758 Z " />
<glyph glyph-name="Otilde" unicode="&#xd5;" horiz-adv-x="812" d="M765 350 C765 559 611 712 406 712 C201 712 47 559 47 350 C47 141 201 -12 406 -12 C611 -12 765 141 765 350 L765 350 Z M693 350 C693 178 570 52 406 52 C242 52 119 178 119 350 C119 522 242 648 406 648 C570 648 693 522 693 350 L693 350 Z M312 778 C318 800 332 813 345 813 C362 813 380 803 399 792 C421 780 448 769 474 769 C521 769 556 799 570 865 L504 865 C498 844 485 833 472 833 C461 833 444 841 431 848 C406 862 374 877 343 877 C298 877 260 845 247 778 L312 778 Z " />
<glyph glyph-name="Odieresis" unicode="&#xd6;" horiz-adv-x="812" d="M765 350 C765 559 611 712 406 712 C201 712 47 559 47 350 C47 141 201 -12 406 -12 C611 -12 765 141 765 350 L765 350 Z M693 350 C693 178 570 52 406 52 C242 52 119 178 119 350 C119 522 242 648 406 648 C570 648 693 522 693 350 L693 350 Z M276 800 L346 800 L346 885 L276 885 L276 800 Z M466 800 L536 800 L536 885 L466 885 L466 800 Z " />
<glyph glyph-name="multiply" unicode="&#xd7;" horiz-adv-x="549" d="M441 109 L491 153 L322 323 L492 494 L442 538 L275 370 L107 540 L57 496 L228 323 L58 152 L108 108 L275 276 L441 109 Z " />
<glyph glyph-name="Oslash" unicode="&#xd8;" horiz-adv-x="810" d="M58 27 L110 -15 L181 61 C242 15 319 -12 405 -12 C610 -12 764 141 764 350 C764 446 731 530 676 593 L753 675 L701 717 L628 639 C567 685 490 712 405 712 C200 712 46 559 46 350 C46 254 78 170 133 107 L58 27 Z M692 350 C692 178 569 52 405 52 C337 52 276 74 228 111 L628 541 C668 490 692 425 692 350 L692 350 Z M118 350 C118 522 241 648 405 648 C473 648 533 626 581 589 L181 159 C141 210 118 275 118 350 L118 350 Z " />
<glyph glyph-name="Ugrave" unicode="&#xd9;" horiz-adv-x="698" d="M89 700 L89 265 C89 149 141 -12 349 -12 C557 -12 609 149 609 265 L609 700 L539 700 L539 265 C539 176 499 52 349 52 C199 52 159 176 159 265 L159 700 L89 700 Z M338 757 L418 757 L302 899 L217 899 L338 757 Z " />
<glyph glyph-name="Uacute" unicode="&#xda;" horiz-adv-x="698" d="M89 700 L89 265 C89 149 141 -12 349 -12 C557 -12 609 149 609 265 L609 700 L539 700 L539 265 C539 176 499 52 349 52 C199 52 159 176 159 265 L159 700 L89 700 Z M492 899 L407 899 L291 757 L371 757 L492 899 Z " />
<glyph glyph-name="Ucircumflex" unicode="&#xdb;" horiz-adv-x="698" d="M89 700 L89 265 C89 149 141 -12 349 -12 C557 -12 609 149 609 265 L609 700 L539 700 L539 265 C539 176 499 52 349 52 C199 52 159 176 159 265 L159 700 L89 700 Z M196 758 L279 758 L348 846 L350 846 L419 758 L502 758 L387 906 L310 906 L196 758 Z " />
<glyph glyph-name="Udieresis" unicode="&#xdc;" horiz-adv-x="698" d="M89 700 L89 265 C89 149 141 -12 349 -12 C557 -12 609 149 609 265 L609 700 L539 700 L539 265 C539 176 499 52 349 52 C199 52 159 176 159 265 L159 700 L89 700 Z M219 800 L289 800 L289 885 L219 885 L219 800 Z M409 800 L479 800 L479 885 L409 885 L409 800 Z " />
<glyph glyph-name="Yacute" unicode="&#xdd;" horiz-adv-x="648" d="M359 0 L359 294 L626 700 L546 700 L325 361 L323 361 L102 700 L22 700 L289 294 L289 0 L359 0 Z M485 899 L400 899 L284 757 L364 757 L485 899 Z " />
<glyph glyph-name="Thorn" unicode="&#xde;" horiz-adv-x="550" d="M98 0 L168 0 L168 172 L274 172 C435 172 522 237 522 361 C522 488 430 547 274 547 L168 547 L168 700 L98 700 L98 0 Z M168 485 L274 485 C385 485 450 444 450 361 C450 279 388 234 274 234 L168 234 L168 485 Z " />
<glyph glyph-name="germandbls" unicode="&#xdf;" horiz-adv-x="580" d="M146 0 L146 558 C146 638 198 677 272 677 C363 677 400 623 400 571 C400 504 353 466 320 440 C293 418 272 402 272 377 C272 347 303 331 345 309 C398 282 478 240 478 164 C478 90 410 58 316 58 C266 58 232 65 217 69 L203 9 C224 4 264 -4 316 -4 C450 -4 548 46 548 164 C548 274 441 330 372 365 C358 372 352 377 352 382 C352 385 354 388 359 392 C402 426 470 479 470 571 C470 653 413 739 272 739 C158 739 78 680 78 558 L78 0 L146 0 Z " />
<glyph glyph-name="agrave" unicode="&#xe0;" horiz-adv-x="540" d="M261 602 L341 602 L225 744 L140 744 L261 602 Z M386 245 L386 115 C343 79 289 50 228 50 C170 50 104 68 104 125 C104 219 234 241 386 245 L386 245 Z M507 63 C507 63 500 62 497 62 C475 62 454 76 454 114 L454 331 C454 452 367 512 260 512 C175 512 104 481 64 441 L108 397 C138 427 193 450 260 450 C328 450 386 411 386 331 L386 305 C197 301 34 271 34 125 C34 21 137 -12 228 -12 C297 -12 355 16 404 54 L406 54 C423 15 459 0 497 0 C511 0 518 2 518 2 L507 63 Z " />
<glyph glyph-name="aacute" unicode="&#xe1;" horiz-adv-x="540" d="M312 744 L196 602 L276 602 L397 744 L312 744 Z M386 245 L386 115 C343 79 289 50 228 50 C170 50 104 68 104 125 C104 219 234 241 386 245 L386 245 Z M507 63 C507 63 500 62 497 62 C475 62 454 76 454 114 L454 331 C454 452 367 512 260 512 C175 512 104 481 64 441 L108 397 C138 427 193 450 260 450 C328 450 386 411 386 331 L386 305 C197 301 34 271 34 125 C34 21 137 -12 228 -12 C297 -12 355 16 404 54 L406 54 C423 15 459 0 497 0 C511 0 518 2 518 2 L507 63 Z " />
<glyph glyph-name="acircumflex" unicode="&#xe2;" horiz-adv-x="540" d="M110 602 L193 602 L262 690 L264 690 L333 602 L416 602 L301 750 L224 750 L110 602 Z M386 245 L386 115 C343 79 289 50 228 50 C170 50 104 68 104 125 C104 219 234 241 386 245 L386 245 Z M507 63 C507 63 500 62 497 62 C475 62 454 76 454 114 L454 331 C454 452 367 512 260 512 C175 512 104 481 64 441 L108 397 C138 427 193 450 260 450 C328 450 386 411 386 331 L386 305 C197 301 34 271 34 125 C34 21 137 -12 228 -12 C297 -12 355 16 404 54 L406 54 C423 15 459 0 497 0 C511 0 518 2 518 2 L507 63 Z " />
<glyph glyph-name="atilde" unicode="&#xe3;" horiz-adv-x="540" d="M386 245 L386 115 C343 79 289 50 228 50 C170 50 104 68 104 125 C104 219 234 241 386 245 L386 245 Z M507 63 C507 63 500 62 497 62 C475 62 454 76 454 114 L454 331 C454 452 367 512 260 512 C175 512 104 481 64 441 L108 397 C138 427 193 450 260 450 C328 450 386 411 386 331 L386 305 C197 301 34 271 34 125 C34 21 137 -12 228 -12 C297 -12 355 16 404 54 L406 54 C423 15 459 0 497 0 C511 0 518 2 518 2 L507 63 Z M161 627 C167 649 181 662 194 662 C211 662 229 652 248 641 C270 629 297 618 323 618 C370 618 405 648 419 714 L353 714 C347 693 334 682 321 682 C310 682 293 690 280 697 C255 711 223 726 192 726 C147 726 109 694 96 627 L161 627 Z " />
<glyph glyph-name="adieresis" unicode="&#xe4;" horiz-adv-x="540" d="M129 615 L199 615 L199 700 L129 700 L129 615 Z M319 615 L389 615 L389 700 L319 700 L319 615 Z M386 245 L386 115 C343 79 289 50 228 50 C170 50 104 68 104 125 C104 219 234 241 386 245 L386 245 Z M507 63 C507 63 500 62 497 62 C475 62 454 76 454 114 L454 331 C454 452 367 512 260 512 C175 512 104 481 64 441 L108 397 C138 427 193 450 260 450 C328 450 386 411 386 331 L386 305 C197 301 34 271 34 125 C34 21 137 -12 228 -12 C297 -12 355 16 404 54 L406 54 C423 15 459 0 497 0 C511 0 518 2 518 2 L507 63 Z " />
<glyph glyph-name="aring" unicode="&#xe5;" horiz-adv-x="540" d="M353 684 C353 737 309 778 258 778 C206 778 163 737 163 684 C163 630 206 590 258 590 C309 590 353 630 353 684 L353 684 Z M292 684 C292 665 276 651 258 651 C239 651 224 665 224 684 C224 703 239 717 258 717 C276 717 292 703 292 684 L292 684 Z M386 245 L386 115 C343 79 289 50 228 50 C170 50 104 68 104 125 C104 219 234 241 386 245 L386 245 Z M507 63 C507 63 500 62 497 62 C475 62 454 76 454 114 L454 331 C454 452 367 512 260 512 C175 512 104 481 64 441 L108 397 C138 427 193 450 260 450 C328 450 386 411 386 331 L386 305 C197 301 34 271 34 125 C34 21 137 -12 228 -12 C297 -12 355 16 404 54 L406 54 C423 15 459 0 497 0 C511 0 518 2 518 2 L507 63 Z " />
<glyph glyph-name="ae" unicode="&#xe6;" horiz-adv-x="917" d="M108 397 C138 427 193 450 260 450 C328 450 386 411 386 331 L386 305 C197 301 34 271 34 125 C34 21 137 -12 228 -12 C288 -12 360 7 405 57 C417 70 427 86 434 104 L436 104 C480 32 560 -12 668 -12 C788 -12 865 58 865 58 L823 104 C823 104 764 50 668 50 C551 50 462 126 456 239 L871 239 C871 239 875 278 875 300 C875 415 800 512 651 512 C555 512 480 472 437 401 L435 401 C411 475 347 512 260 512 C175 512 104 481 64 441 L108 397 Z M228 50 C170 50 104 68 104 125 C104 219 234 241 386 245 L386 171 C386 82 289 50 228 50 L228 50 Z M651 450 C753 450 805 380 805 299 L461 299 C481 394 559 450 651 450 L651 450 Z " />
<glyph glyph-name="ccedilla" unicode="&#xe7;" horiz-adv-x="525" d="M494 426 C458 478 395 512 307 512 C161 512 42 414 42 250 C42 114 125 15 255 -7 L204 -83 L243 -122 C258 -113 268 -110 284 -110 C299 -110 321 -116 321 -131 C321 -146 299 -150 284 -150 C257 -150 232 -144 221 -138 L189 -191 C207 -202 246 -212 284 -212 C334 -212 391 -192 391 -133 C391 -79 337 -63 305 -63 C294 -63 285 -66 279 -69 C278 -69 278 -68 277 -68 L326 -11 C438 -5 498 74 498 74 L448 111 C448 111 403 50 313 50 C193 50 112 132 112 250 C112 375 200 450 307 450 C373 450 418 427 443 391 L494 426 Z " />
<glyph glyph-name="egrave" unicode="&#xe8;" horiz-adv-x="573" d="M273 602 L353 602 L237 744 L152 744 L273 602 Z M527 239 C527 239 531 278 531 300 C531 415 456 512 307 512 C161 512 42 414 42 250 C42 95 162 -12 324 -12 C444 -12 521 58 521 58 L479 104 C479 104 420 50 324 50 C207 50 118 126 112 239 L527 239 Z M307 450 C409 450 461 380 461 299 L117 299 C137 394 215 450 307 450 L307 450 Z " />
<glyph glyph-name="eacute" unicode="&#xe9;" horiz-adv-x="573" d="M242 602 L322 602 L443 744 L358 744 L242 602 Z M527 239 C527 239 531 278 531 300 C531 415 456 512 307 512 C161 512 42 414 42 250 C42 95 162 -12 324 -12 C444 -12 521 58 521 58 L479 104 C479 104 420 50 324 50 C207 50 118 126 112 239 L527 239 Z M307 450 C409 450 461 380 461 299 L117 299 C137 394 215 450 307 450 L307 450 Z " />
<glyph glyph-name="ecircumflex" unicode="&#xea;" horiz-adv-x="573" d="M147 602 L230 602 L299 690 L301 690 L370 602 L453 602 L338 750 L261 750 L147 602 Z M527 239 C527 239 531 278 531 300 C531 415 456 512 307 512 C161 512 42 414 42 250 C42 95 162 -12 324 -12 C444 -12 521 58 521 58 L479 104 C479 104 420 50 324 50 C207 50 118 126 112 239 L527 239 Z M307 450 C409 450 461 380 461 299 L117 299 C137 394 215 450 307 450 L307 450 Z " />
<glyph glyph-name="edieresis" unicode="&#xeb;" horiz-adv-x="573" d="M170 615 L240 615 L240 700 L170 700 L170 615 Z M360 615 L430 615 L430 700 L360 700 L360 615 Z M527 239 C527 239 531 278 531 300 C531 415 456 512 307 512 C161 512 42 414 42 250 C42 95 162 -12 324 -12 C444 -12 521 58 521 58 L479 104 C479 104 420 50 324 50 C207 50 118 126 112 239 L527 239 Z M307 450 C409 450 461 380 461 299 L117 299 C137 394 215 450 307 450 L307 450 Z " />
<glyph glyph-name="igrave" unicode="&#xec;" horiz-adv-x="228" d="M80 0 L148 0 L148 500 L80 500 L80 0 Z M73 602 L153 602 L37 744 L-48 744 L73 602 Z " />
<glyph glyph-name="iacute" unicode="&#xed;" horiz-adv-x="228" d="M80 0 L148 0 L148 500 L80 500 L80 0 Z M276 744 L191 744 L75 602 L155 602 L276 744 Z " />
<glyph glyph-name="icircumflex" unicode="&#xee;" horiz-adv-x="228" d="M80 0 L148 0 L148 500 L80 500 L80 0 Z M-38 602 L45 602 L114 690 L116 690 L185 602 L268 602 L153 750 L76 750 L-38 602 Z " />
<glyph glyph-name="idieresis" unicode="&#xef;" horiz-adv-x="228" d="M80 0 L148 0 L148 500 L80 500 L80 0 Z M-15 615 L55 615 L55 700 L-15 700 L-15 615 Z M175 615 L245 615 L245 700 L175 700 L175 615 Z " />
<glyph glyph-name="eth" unicode="&#xf0;" horiz-adv-x="604" d="M416 696 L386 748 L268 676 C233 700 197 723 162 745 L131 694 C158 677 185 660 212 643 L107 580 L137 528 L266 605 C319 566 376 516 414 469 L413 467 C382 482 339 500 301 500 C151 500 42 391 42 244 C42 97 151 -12 301 -12 C454 -12 561 97 561 244 C559 407 453 535 320 638 L416 696 Z M491 244 C491 133 413 50 301 50 C192 50 112 133 112 244 C112 355 192 438 301 438 C413 438 491 355 491 244 L491 244 Z " />
<glyph glyph-name="ntilde" unicode="&#xf1;" horiz-adv-x="615" d="M146 0 L146 362 C188 422 240 450 316 450 C422 450 476 393 476 306 L476 0 L544 0 L544 306 C544 430 469 512 316 512 C253 512 189 482 148 443 L146 443 L146 500 L78 500 L78 0 L146 0 Z M216 627 C222 649 236 662 249 662 C266 662 284 652 303 641 C325 629 352 618 378 618 C425 618 460 648 474 714 L408 714 C402 693 389 682 376 682 C365 682 348 690 335 697 C310 711 278 726 247 726 C202 726 164 694 151 627 L216 627 Z " />
<glyph glyph-name="ograve" unicode="&#xf2;" horiz-adv-x="615" d="M573 250 C573 400 463 512 307 512 C153 512 42 400 42 250 C42 100 153 -12 307 -12 C463 -12 573 100 573 250 L573 250 Z M503 250 C503 135 422 50 307 50 C194 50 112 135 112 250 C112 365 194 450 307 450 C422 450 503 365 503 250 L503 250 Z M277 602 L357 602 L241 744 L156 744 L277 602 Z " />
<glyph glyph-name="oacute" unicode="&#xf3;" horiz-adv-x="615" d="M573 250 C573 400 463 512 307 512 C153 512 42 400 42 250 C42 100 153 -12 307 -12 C463 -12 573 100 573 250 L573 250 Z M503 250 C503 135 422 50 307 50 C194 50 112 135 112 250 C112 365 194 450 307 450 C422 450 503 365 503 250 L503 250 Z M458 744 L373 744 L257 602 L337 602 L458 744 Z " />
<glyph glyph-name="ocircumflex" unicode="&#xf4;" horiz-adv-x="615" d="M573 250 C573 400 463 512 307 512 C153 512 42 400 42 250 C42 100 153 -12 307 -12 C463 -12 573 100 573 250 L573 250 Z M503 250 C503 135 422 50 307 50 C194 50 112 135 112 250 C112 365 194 450 307 450 C422 450 503 365 503 250 L503 250 Z M154 602 L237 602 L306 690 L308 690 L377 602 L460 602 L345 750 L268 750 L154 602 Z " />
<glyph glyph-name="otilde" unicode="&#xf5;" horiz-adv-x="615" d="M573 250 C573 400 463 512 307 512 C153 512 42 400 42 250 C42 100 153 -12 307 -12 C463 -12 573 100 573 250 L573 250 Z M503 250 C503 135 422 50 307 50 C194 50 112 135 112 250 C112 365 194 450 307 450 C422 450 503 365 503 250 L503 250 Z M211 627 C217 649 231 662 244 662 C261 662 279 652 298 641 C320 629 347 618 373 618 C420 618 455 648 469 714 L403 714 C397 693 384 682 371 682 C360 682 343 690 330 697 C305 711 273 726 242 726 C197 726 159 694 146 627 L211 627 Z " />
<glyph glyph-name="odieresis" unicode="&#xf6;" horiz-adv-x="615" d="M573 250 C573 400 463 512 307 512 C153 512 42 400 42 250 C42 100 153 -12 307 -12 C463 -12 573 100 573 250 L573 250 Z M503 250 C503 135 422 50 307 50 C194 50 112 135 112 250 C112 365 194 450 307 450 C422 450 503 365 503 250 L503 250 Z M177 615 L247 615 L247 700 L177 700 L177 615 Z M367 615 L437 615 L437 700 L367 700 L367 615 Z " />
<glyph glyph-name="divide" unicode="&#xf7;" horiz-adv-x="691" d="M73 293 L618 293 L618 355 L73 355 L73 293 Z M311 93 L381 93 L381 178 L311 178 L311 93 Z M311 469 L381 469 L381 554 L311 554 L311 469 Z " />
<glyph glyph-name="oslash" unicode="&#xf8;" horiz-adv-x="618" d="M541 533 L472 461 C428 493 372 512 309 512 C155 512 44 400 44 250 C44 184 65 127 101 82 L28 7 L76 -35 L147 38 C191 6 246 -12 309 -12 C465 -12 575 100 575 250 C575 315 554 373 518 418 L589 491 L541 533 Z M505 250 C505 135 424 50 309 50 C265 50 225 63 194 85 L470 369 C492 336 505 295 505 250 L505 250 Z M114 250 C114 365 196 450 309 450 C354 450 393 437 425 414 L149 131 C127 163 114 204 114 250 L114 250 Z " />
<glyph glyph-name="ugrave" unicode="&#xf9;" horiz-adv-x="615" d="M469 500 L469 138 C427 78 375 50 299 50 C193 50 139 107 139 194 L139 500 L71 500 L71 194 C71 70 146 -12 299 -12 C362 -12 426 18 467 57 L469 57 L469 0 L537 0 L537 500 L469 500 Z M284 602 L364 602 L248 744 L163 744 L284 602 Z " />
<glyph glyph-name="uacute" unicode="&#xfa;" horiz-adv-x="615" d="M469 500 L469 138 C427 78 375 50 299 50 C193 50 139 107 139 194 L139 500 L71 500 L71 194 C71 70 146 -12 299 -12 C362 -12 426 18 467 57 L469 57 L469 0 L537 0 L537 500 L469 500 Z M444 744 L359 744 L243 602 L323 602 L444 744 Z " />
<glyph glyph-name="ucircumflex" unicode="&#xfb;" horiz-adv-x="615" d="M469 500 L469 138 C427 78 375 50 299 50 C193 50 139 107 139 194 L139 500 L71 500 L71 194 C71 70 146 -12 299 -12 C362 -12 426 18 467 57 L469 57 L469 0 L537 0 L537 500 L469 500 Z M151 602 L234 602 L303 690 L305 690 L374 602 L457 602 L342 750 L265 750 L151 602 Z " />
<glyph glyph-name="udieresis" unicode="&#xfc;" horiz-adv-x="615" d="M469 500 L469 138 C427 78 375 50 299 50 C193 50 139 107 139 194 L139 500 L71 500 L71 194 C71 70 146 -12 299 -12 C362 -12 426 18 467 57 L469 57 L469 0 L537 0 L537 500 L469 500 Z M174 615 L244 615 L244 700 L174 700 L174 615 Z M364 615 L434 615 L434 700 L364 700 L364 615 Z " />
<glyph glyph-name="yacute" unicode="&#xfd;" horiz-adv-x="565" d="M21 500 L247 1 L213 -73 C185 -133 160 -144 105 -144 C87 -144 69 -142 53 -139 L39 -197 C61 -202 84 -204 105 -204 C203 -204 238 -179 275 -97 L547 500 L474 500 L284 80 L282 80 L94 500 L21 500 Z M438 744 L353 744 L237 602 L317 602 L438 744 Z " />
<glyph glyph-name="thorn" unicode="&#xfe;" horiz-adv-x="602" d="M77 -200 L145 -200 L145 50 L147 50 C188 11 241 -12 304 -12 C445 -12 560 100 560 250 C560 400 445 512 304 512 C241 512 188 489 147 450 L145 450 L145 730 L77 730 L77 -200 Z M304 50 C238 50 181 82 145 135 L145 362 C182 416 238 450 304 450 C406 450 490 365 490 250 C490 135 406 50 304 50 L304 50 Z " />
<glyph glyph-name="ydieresis" unicode="&#xff;" horiz-adv-x="565" d="M21 500 L247 1 L213 -73 C185 -133 160 -144 105 -144 C87 -144 69 -142 53 -139 L39 -197 C61 -202 84 -204 105 -204 C203 -204 238 -179 275 -97 L547 500 L474 500 L284 80 L282 80 L94 500 L21 500 Z M161 615 L231 615 L231 700 L161 700 L161 615 Z M351 615 L421 615 L421 700 L351 700 L351 615 Z " />
<glyph glyph-name="OE" unicode="&#x152;" horiz-adv-x="959" d="M537 395 L537 638 L901 638 L901 700 L395 700 C196 700 48 553 48 350 C48 147 196 0 395 0 L913 0 L913 62 L537 62 L537 333 L877 333 L877 395 L537 395 Z M395 62 C237 62 120 184 120 350 C120 516 237 638 395 638 L467 638 L467 62 L395 62 Z " />
<glyph glyph-name="oe" unicode="&#x153;" horiz-adv-x="1034" d="M940 104 C940 104 881 50 785 50 C667 50 578 128 573 239 L988 239 C988 239 992 278 992 300 C992 415 917 512 768 512 C664 512 578 464 538 379 L536 379 C496 460 414 512 307 512 C153 512 42 400 42 250 C42 100 153 -12 307 -12 C416 -12 499 43 538 125 L540 125 C582 41 671 -12 785 -12 C905 -12 982 58 982 58 L940 104 Z M768 450 C850 450 899 405 916 346 C920 331 922 315 922 299 L578 299 C598 394 676 450 768 450 L768 450 Z M307 450 C422 450 503 365 503 250 C503 135 422 50 307 50 C194 50 112 135 112 250 C112 365 194 450 307 450 L307 450 Z " />
<glyph glyph-name="Scaron" unicode="&#x160;" horiz-adv-x="522" d="M265 52 C151 52 91 120 91 120 L43 78 C43 78 122 -12 265 -12 C397 -12 477 70 477 167 C477 302 377 336 279 384 C203 421 129 445 129 531 C129 597 189 648 275 648 C370 648 416 600 416 600 L462 644 C462 644 397 712 275 712 C146 712 57 633 57 531 C57 409 154 372 247 326 C321 290 405 259 405 167 C405 103 352 52 265 52 L265 52 Z M228 758 L305 758 L420 906 L337 906 L268 818 L266 818 L197 906 L114 906 L228 758 Z " />
<glyph glyph-name="scaron" unicode="&#x161;" horiz-adv-x="432" d="M220 50 C129 50 83 102 83 102 L37 61 C37 61 102 -12 220 -12 C332 -12 393 50 393 125 C393 222 307 256 228 283 C174 302 119 321 119 373 C119 418 167 450 228 450 C300 450 334 414 334 414 L379 457 C379 457 327 512 228 512 C127 512 49 454 49 373 C49 279 127 252 206 225 C264 205 323 185 323 125 C323 84 286 50 220 50 L220 50 Z M194 602 L271 602 L386 750 L303 750 L234 662 L232 662 L163 750 L80 750 L194 602 Z " />
<glyph glyph-name="Ydieresis" unicode="&#x178;" horiz-adv-x="648" d="M359 0 L359 294 L626 700 L546 700 L325 361 L323 361 L102 700 L22 700 L289 294 L289 0 L359 0 Z M195 800 L265 800 L265 885 L195 885 L195 800 Z M385 800 L455 800 L455 885 L385 885 L385 800 Z " />
<glyph glyph-name="Zcaron" unicode="&#x17d;" horiz-adv-x="574" d="M45 638 L446 638 L446 636 L34 59 L34 0 L538 0 L538 62 L120 62 L120 64 L532 641 L532 700 L45 700 L45 638 Z M247 758 L324 758 L439 906 L356 906 L287 818 L285 818 L216 906 L133 906 L247 758 Z " />
<glyph glyph-name="zcaron" unicode="&#x17e;" horiz-adv-x="472" d="M280 602 L395 750 L312 750 L243 662 L241 662 L172 750 L89 750 L203 602 L280 602 Z M120 62 L427 447 L427 500 L47 500 L47 440 L339 440 L339 438 L32 53 L32 0 L438 0 L438 60 L120 60 L120 62 Z " />
<glyph glyph-name="florin" unicode="&#x192;" horiz-adv-x="503" d="M479 687 C458 703 429 712 399 712 C293 712 254 636 238 556 L210 418 L92 418 C93 418 92 358 92 358 L198 358 L133 25 C124 -20 100 -75 37 -75 C22 -75 11 -74 3 -69 L-28 -123 C-9 -134 12 -137 37 -137 C152 -137 187 -57 201 13 L269 358 L387 358 C387 358 388 418 387 418 L281 418 L306 544 C317 599 340 650 399 650 C416 650 431 646 441 638 L479 687 Z " />
<glyph glyph-name="circumflex" unicode="&#x2c6;" horiz-adv-x="406" d="M50 602 L133 602 L202 690 L204 690 L273 602 L356 602 L241 750 L164 750 L50 602 Z " />
<glyph glyph-name="caron" unicode="&#x2c7;" horiz-adv-x="406" d="M356 750 L273 750 L204 662 L202 662 L133 750 L50 750 L164 602 L241 602 L356 750 Z " />
<glyph glyph-name="tilde" unicode="&#x2dc;" horiz-adv-x="423" d="M115 627 C121 649 135 662 148 662 C165 662 183 652 202 641 C224 629 251 618 277 618 C324 618 359 648 373 714 L307 714 C301 693 288 682 275 682 C264 682 247 690 234 697 C209 711 177 726 146 726 C101 726 63 694 50 627 L115 627 Z " />
<glyph glyph-name="endash" unicode="&#x2013;" horiz-adv-x="471" d="M54 229 L417 229 L417 291 L54 291 L54 229 Z " />
<glyph glyph-name="emdash" unicode="&#x2014;" horiz-adv-x="685" d="M54 229 L631 229 L631 291 L54 291 L54 229 Z " />
<glyph glyph-name="quoteleft" unicode="&#x2018;" horiz-adv-x="244" d="M185 466 L115 701 L43 701 L117 466 L185 466 Z " />
<glyph glyph-name="quoteright" unicode="&#x2019;" horiz-adv-x="244" d="M201 701 L129 701 L59 466 L127 466 L201 701 Z " />
<glyph glyph-name="quotesinglbase" unicode="&#x201a;" horiz-adv-x="246" d="M168 95 L96 95 L26 -140 L94 -140 L168 95 Z " />
<glyph glyph-name="quotedblleft" unicode="&#x201c;" horiz-adv-x="407" d="M43 701 L117 466 L185 466 L115 701 L43 701 Z M206 701 L280 466 L348 466 L278 701 L206 701 Z " />
<glyph glyph-name="quotedblright" unicode="&#x201d;" horiz-adv-x="407" d="M59 466 L127 466 L201 701 L129 701 L59 466 Z M222 466 L290 466 L364 701 L292 701 L222 466 Z " />
<glyph glyph-name="quotedblbase" unicode="&#x201e;" horiz-adv-x="409" d="M168 95 L96 95 L26 -140 L94 -140 L168 95 Z M331 95 L259 95 L189 -140 L257 -140 L331 95 Z " />
<glyph glyph-name="dagger" unicode="&#x2020;" horiz-adv-x="521" d="M35 501 L35 439 L225 439 L225 -125 L295 -125 L295 439 L486 439 L486 501 L295 501 L295 700 L225 700 L225 501 L35 501 Z " />
<glyph glyph-name="daggerdbl" unicode="&#x2021;" horiz-adv-x="585" d="M518 126 L327 126 L327 449 L518 449 L518 511 L327 511 L327 700 L257 700 L257 511 L67 511 L67 449 L257 449 L257 126 L67 126 L67 64 L257 64 L257 -125 L327 -125 L327 64 L518 64 L518 126 Z " />
<glyph glyph-name="bullet" unicode="&#x2022;" horiz-adv-x="486" d="M243 522 C140 522 75 447 75 355 C75 262 140 186 243 186 C346 186 411 262 411 355 C411 447 346 522 243 522 L243 522 Z " />
<glyph glyph-name="ellipsis" unicode="&#x2026;" horiz-adv-x="868" d="M140 0 L140 85 L70 85 L70 0 L140 0 Z M469 0 L469 85 L399 85 L399 0 L469 0 Z M798 0 L798 85 L728 85 L728 0 L798 0 Z " />
<glyph glyph-name="perthousand" unicode="&#x2030;" horiz-adv-x="1201" d="M369 539 C369 632 296 704 203 704 C110 704 37 632 37 539 C37 446 110 374 203 374 C296 374 369 446 369 539 L369 539 Z M769 161 C769 254 696 326 603 326 C510 326 437 254 437 161 C437 68 510 -4 603 -4 C696 -4 769 68 769 161 L769 161 Z M297 539 C297 482 256 438 203 438 C150 438 109 482 109 539 C109 596 150 640 203 640 C256 640 297 596 297 539 L297 539 Z M697 161 C697 104 656 60 603 60 C550 60 509 104 509 161 C509 218 550 262 603 262 C656 262 697 218 697 161 L697 161 Z M585 718 L139 -18 L218 -18 L664 718 L585 718 Z M1166 161 C1166 254 1093 326 1000 326 C907 326 834 254 834 161 C834 68 907 -4 1000 -4 C1093 -4 1166 68 1166 161 L1166 161 Z M1094 161 C1094 104 1053 60 1000 60 C947 60 906 104 906 161 C906 218 947 262 1000 262 C1053 262 1094 218 1094 161 L1094 161 Z " />
<glyph glyph-name="guilsinglleft" unicode="&#x2039;" horiz-adv-x="322" d="M265 51 L131 255 L266 462 L186 462 L51 256 L185 51 L265 51 Z " />
<glyph glyph-name="guilsinglright" unicode="&#x203a;" horiz-adv-x="322" d="M271 256 L136 462 L56 462 L191 255 L57 51 L137 51 L271 256 Z " />
<glyph glyph-name="Euro" unicode="&#x20ac;" horiz-adv-x="758" d="M673 140 C621 85 545 52 458 52 C334 52 233 124 191 234 L548 234 L571 296 L175 296 C172 313 171 331 171 350 C171 369 172 388 175 406 L612 406 L635 468 L192 468 C234 576 334 648 458 648 C542 648 616 616 669 562 L694 628 C632 681 550 712 458 712 C294 712 162 614 116 468 L45 468 L45 406 L103 406 C100 388 99 369 99 350 C99 331 100 313 102 296 L43 296 L43 234 L116 234 C161 86 293 -12 458 -12 C563 -12 655 29 719 96 L673 140 Z " />
<glyph glyph-name="trademark" unicode="&#x2122;" horiz-adv-x="901" d="M38 638 L160 638 L160 293 L230 293 L230 638 L352 638 L352 700 L38 700 L38 638 Z M746 293 L816 293 L816 700 L745 700 L613 383 L611 383 L478 700 L407 700 L407 293 L477 293 L477 526 L479 526 L575 293 L649 293 L744 525 L746 525 L746 293 Z " />
</font>
</svg>
