<?xml version="1.0" encoding="UTF-8"?>
<svg xmlns="http://www.w3.org/2000/svg" xmlns:xlink="http://www.w3.org/1999/xlink" version="1.2" >
<font id="Gentleman 900 Heavy">
<font-face  font-family="Gentleman 900" units-per-em="1000" ascent="750" descent="-250" font-style="normal" font-weight="900" font-stretch="normal" cap-height="700" x-height="500" underline-position="-75" underline-thickness="50" />
<missing-glyph  horiz-adv-x="594" d="M30 700 L30 0 L564 0 L564 700 L30 700 Z M185 562 L409 562 L409 138 L185 138 L185 562 Z " />
<glyph glyph-name="NULL" d="" />
<glyph glyph-name="&amp;#x0;" horiz-adv-x="250" d="" />
<glyph glyph-name="&amp;#xd;" unicode="&#xd;" horiz-adv-x="250" d="" />
<glyph glyph-name="space" unicode="&#x20;" horiz-adv-x="236" d="" />
<glyph glyph-name="exclam" unicode="&#x21;" horiz-adv-x="327" d="M94 233 L234 233 L241 700 L86 700 L94 233 Z M86 0 L241 0 L241 144 L86 144 L86 0 Z " />
<glyph glyph-name="quotedbl" unicode="&#x22;" horiz-adv-x="469" d="M66 438 L190 438 L198 700 L58 700 L66 438 Z M279 438 L403 438 L411 700 L271 700 L279 438 Z " />
<glyph glyph-name="numbersign" unicode="&#x23;" horiz-adv-x="692" d="M256 0 L277 158 L370 158 L349 0 L508 0 L529 158 L626 158 L626 293 L548 293 L564 410 L651 410 L651 545 L583 545 L604 700 L445 700 L424 545 L331 545 L352 700 L193 700 L171 545 L65 545 L65 410 L153 410 L137 293 L40 293 L40 158 L118 158 L97 0 L256 0 Z M310 413 L407 413 L390 290 L294 290 L310 413 Z " />
<glyph glyph-name="dollar" unicode="&#x24;" horiz-adv-x="551" d="M216 -90 L356 -90 L356 1 C446 26 510 97 510 206 C510 340 399 391 309 424 C256 444 216 458 216 504 C216 551 260 571 303 571 C351 571 397 548 416 529 C445 564 473 600 502 636 C475 662 422 696 356 707 L356 791 L216 791 L216 699 C127 675 60 608 60 504 C60 369 141 332 258 291 C301 275 353 254 353 206 C353 155 317 128 270 128 C206 128 142 165 119 187 C90 153 61 119 32 85 C65 48 132 4 216 -8 L216 -90 Z " />
<glyph glyph-name="percent" unicode="&#x25;" horiz-adv-x="879" d="M382 539 C382 637 305 713 207 713 C109 713 32 637 32 539 C32 441 109 365 207 365 C305 365 382 441 382 539 L382 539 Z M848 161 C848 259 771 335 672 335 C574 335 497 259 497 161 C497 63 574 -13 672 -13 C771 -13 848 63 848 161 L848 161 Z M261 539 C261 509 237 485 209 485 C179 485 156 509 156 539 C156 569 179 594 209 594 C237 594 261 569 261 539 L261 539 Z M726 161 C726 131 703 107 674 107 C645 107 621 131 621 161 C621 191 645 216 674 216 C703 216 726 191 726 161 L726 161 Z M573 718 L127 -18 L303 -18 L749 718 L573 718 Z " />
<glyph glyph-name="ampersand" unicode="&#x26;" horiz-adv-x="761" d="M326 461 C309 482 295 509 295 528 C295 557 316 574 341 574 C363 574 382 560 382 535 C382 511 359 482 326 461 L326 461 Z M288 290 L396 169 C373 144 344 126 311 126 C262 126 222 152 222 198 C222 238 248 265 288 290 L288 290 Z M723 376 L541 376 L483 286 L419 360 C485 404 538 460 538 534 C538 648 448 712 341 712 C230 712 140 646 140 528 C140 479 162 435 190 396 C113 348 67 293 67 198 C67 64 177 -12 311 -12 C399 -12 450 12 496 58 L543 0 L741 0 L585 175 L723 376 Z " />
<glyph glyph-name="quotesingle" unicode="&#x27;" horiz-adv-x="256" d="M66 438 L190 438 L198 700 L58 700 L66 438 Z " />
<glyph glyph-name="parenleft" unicode="&#x28;" horiz-adv-x="318" d="M171 728 C90 610 35 450 35 285 C35 120 90 -40 172 -158 L285 -99 C229 5 192 141 192 285 C192 427 228 563 284 666 L171 728 Z " />
<glyph glyph-name="parenright" unicode="&#x29;" horiz-adv-x="318" d="M34 666 C89 563 126 427 126 285 C126 141 88 5 33 -99 L146 -158 C227 -40 283 120 283 285 C283 450 227 610 146 728 L34 666 Z " />
<glyph glyph-name="asterisk" unicode="&#x2a;" horiz-adv-x="522" d="M187 721 L190 609 L85 650 L37 518 L144 483 L72 385 L190 306 L259 415 L328 307 L447 385 L374 482 L483 512 L438 646 L326 606 L330 721 L187 721 Z " />
<glyph glyph-name="plus" unicode="&#x2b;" horiz-adv-x="618" d="M37 255 L232 255 L232 51 L388 51 L388 255 L582 255 L582 393 L388 393 L388 596 L232 596 L232 393 L37 393 L37 255 Z " />
<glyph glyph-name="comma" unicode="&#x2c;" horiz-adv-x="281" d="M222 95 L77 95 L5 -148 L141 -148 L222 95 Z " />
<glyph glyph-name="hyphen" unicode="&#x2d;" horiz-adv-x="405" d="M52 191 L353 191 L353 329 L52 329 L52 191 Z " />
<glyph glyph-name="period" unicode="&#x2e;" horiz-adv-x="267" d="M56 0 L211 0 L211 144 L56 144 L56 0 Z " />
<glyph glyph-name="slash" unicode="&#x2f;" horiz-adv-x="512" d="M22 -9 L187 -9 L490 716 L325 716 L22 -9 Z " />
<glyph glyph-name="zero" unicode="0" horiz-adv-x="557" d="M278 712 C98 712 43 528 43 349 C43 170 98 -12 278 -12 C457 -12 514 170 514 349 C514 528 457 712 278 712 L278 712 Z M278 572 C338 572 357 459 357 349 C357 239 338 128 278 128 C218 128 200 239 200 349 C200 459 218 572 278 572 L278 572 Z " />
<glyph glyph-name="one" unicode="1" horiz-adv-x="432" d="M340 0 L340 700 L160 700 L-3 568 L90 467 L184 549 L186 549 L186 0 L340 0 Z " />
<glyph glyph-name="two" unicode="2" horiz-adv-x="565" d="M526 136 L201 136 C201 241 511 307 511 502 C511 607 422 712 271 712 C108 712 40 573 40 573 L162 510 C162 510 194 574 271 574 C325 574 356 538 356 502 C356 393 37 317 37 88 L37 0 L526 0 L526 136 Z " />
<glyph glyph-name="three" unicode="3" horiz-adv-x="576" d="M47 583 L175 530 C175 530 197 574 275 574 C335 574 362 534 362 494 C362 445 322 417 279 416 L220 416 L220 301 L276 301 C321 300 379 273 379 216 C379 152 337 126 272 126 C179 126 154 188 154 188 L23 142 C23 142 77 -12 272 -12 C431 -12 534 60 534 201 C534 282 466 347 402 361 L402 363 C457 380 518 434 518 512 C518 607 442 712 274 712 C100 712 47 583 47 583 L47 583 Z " />
<glyph glyph-name="four" unicode="4" horiz-adv-x="614" d="M24 134 L349 134 L349 0 L502 0 L502 134 L575 134 L575 270 L502 270 L502 700 L338 700 L24 282 L24 134 Z M349 270 L177 270 L177 272 L347 504 L349 504 L349 270 Z " />
<glyph glyph-name="five" unicode="5" horiz-adv-x="566" d="M480 700 L73 700 L67 352 L150 309 C154 311 196 338 250 338 C321 338 376 298 376 231 C376 168 322 126 267 126 C212 126 173 149 155 185 L33 120 C75 40 155 -12 267 -12 C418 -12 531 95 531 232 C531 361 443 461 286 461 C256 461 230 452 224 449 C223 449 223 450 222 450 L225 564 L480 564 L480 700 Z " />
<glyph glyph-name="six" unicode="6" horiz-adv-x="582" d="M193 285 C217 311 252 332 305 332 C363 332 397 281 397 224 C397 162 360 124 313 124 C248 124 195 187 193 285 L193 285 Z M39 317 C39 127 148 -12 313 -12 C444 -12 550 77 550 222 C550 354 441 448 315 448 C271 448 233 432 200 408 L198 408 C220 493 273 574 371 574 C424 574 449 560 449 560 L511 683 C511 683 454 712 371 712 C139 712 39 492 39 317 L39 317 Z " />
<glyph glyph-name="seven" unicode="7" horiz-adv-x="504" d="M61 0 L228 0 L493 558 L493 700 L25 700 L25 564 L340 564 L340 562 L61 0 Z " />
<glyph glyph-name="eight" unicode="8" horiz-adv-x="601" d="M320 422 C266 441 218 465 218 508 C218 551 258 575 305 575 C353 575 386 554 386 508 C386 463 355 440 320 422 L320 422 Z M279 295 C317 278 404 254 404 197 C404 150 355 125 305 125 C253 125 197 145 197 197 C197 250 235 275 279 295 L279 295 Z M305 -12 C430 -12 557 61 557 197 C557 275 518 320 470 354 L470 356 C509 389 539 433 539 508 C539 646 441 712 305 712 C176 712 65 636 65 508 C65 442 94 401 131 369 L131 367 C82 334 44 285 44 197 C45 47 179 -12 305 -12 L305 -12 Z " />
<glyph glyph-name="nine" unicode="9" horiz-adv-x="585" d="M546 383 C546 573 437 712 272 712 C141 712 35 623 35 478 C35 346 144 252 270 252 C314 252 352 268 385 292 L387 292 C365 207 312 126 214 126 C161 126 136 140 136 140 L74 17 C74 17 131 -12 214 -12 C446 -12 546 208 546 383 L546 383 Z M392 415 C368 389 333 368 280 368 C222 368 188 419 188 476 C188 538 225 576 272 576 C337 576 390 513 392 415 L392 415 Z " />
<glyph glyph-name="colon" unicode="&#x3a;" horiz-adv-x="267" d="M56 0 L211 0 L211 144 L56 144 L56 0 Z M56 356 L211 356 L211 500 L56 500 L56 356 Z " />
<glyph glyph-name="semicolon" unicode="&#x3b;" horiz-adv-x="302" d="M81 356 L236 356 L236 500 L81 500 L81 356 Z M155 -148 L236 95 L91 95 L19 -148 L155 -148 Z " />
<glyph glyph-name="less" unicode="&#x3c;" horiz-adv-x="639" d="M579 656 L34 409 L34 254 L579 6 L579 161 L184 331 L184 333 L579 501 L579 656 Z " />
<glyph glyph-name="equal" unicode="&#x3d;" horiz-adv-x="663" d="M59 496 L59 358 L604 358 L604 496 L59 496 Z M59 290 L59 152 L604 152 L604 290 L59 290 Z " />
<glyph glyph-name="greater" unicode="&#x3e;" horiz-adv-x="639" d="M60 501 L455 333 L455 331 L60 161 L60 6 L605 254 L605 409 L60 656 L60 501 Z " />
<glyph glyph-name="question" unicode="&#x3f;" horiz-adv-x="526" d="M174 0 L329 0 L329 144 L174 144 L174 0 Z M329 233 L329 271 C329 308 344 324 377 348 C433 389 482 431 482 521 C482 644 383 712 259 712 C141 712 54 646 31 538 L168 508 C181 552 219 572 259 572 C296 572 325 554 325 521 C325 493 307 477 285 461 C207 403 174 366 174 271 L174 233 L329 233 Z " />
<glyph glyph-name="at" unicode="&#x40;" horiz-adv-x="788" d="M658 169 C598 112 522 78 412 78 C250 78 140 182 140 347 C140 502 246 622 404 622 C544 622 647 563 647 398 C647 319 602 266 568 266 C550 267 541 279 544 298 L582 525 L482 525 L477 494 L475 494 C462 517 434 540 393 540 C285 540 216 432 216 322 C216 229 271 162 359 162 C410 162 446 187 467 212 L469 212 C478 188 501 162 547 162 C638 162 747 257 747 398 C747 629 602 712 404 712 C186 712 40 553 40 347 C40 127 191 -12 412 -12 C548 -12 644 31 720 104 L658 169 Z M404 450 C436 450 455 431 464 419 C456 373 448 326 440 280 C427 267 400 252 363 252 C339 252 316 283 316 327 C316 390 351 450 404 450 L404 450 Z " />
<glyph glyph-name="A" unicode="A" horiz-adv-x="706" d="M209 135 L497 135 L551 0 L714 0 L436 700 L271 700 L-9 0 L154 0 L209 135 Z M355 538 L443 271 L263 271 L353 538 L355 538 Z " />
<glyph glyph-name="B" unicode="B" horiz-adv-x="674" d="M78 0 L336 0 C498 0 640 41 640 205 C640 290 593 342 516 370 L516 372 C563 391 600 446 600 508 C600 669 475 700 325 700 L78 700 L78 0 Z M233 308 L357 308 C436 308 483 277 483 218 C483 158 414 138 336 138 L233 138 L233 308 Z M233 562 L325 562 C389 562 442 546 442 491 C442 440 397 418 357 418 L233 418 L233 562 Z " />
<glyph glyph-name="C" unicode="C" horiz-adv-x="685" d="M548 520 L661 603 C612 670 511 712 407 712 C194 712 34 559 34 350 C34 141 190 -12 407 -12 C535 -12 626 47 674 116 L558 196 C532 160 480 128 407 128 C282 128 191 222 191 350 C191 478 284 572 407 572 C466 572 521 552 548 520 L548 520 Z " />
<glyph glyph-name="D" unicode="D" horiz-adv-x="714" d="M78 0 L311 0 C486 0 679 117 679 351 C679 584 486 700 311 700 L78 700 L78 0 Z M233 562 L311 562 C411 562 522 491 522 351 C522 210 411 138 311 138 L233 138 L233 562 Z " />
<glyph glyph-name="E" unicode="E" horiz-adv-x="565" d="M233 138 L233 295 L488 295 L488 433 L233 433 L233 562 L512 562 L512 700 L78 700 L78 0 L524 0 L524 138 L233 138 Z " />
<glyph glyph-name="F" unicode="F" horiz-adv-x="534" d="M233 562 L500 562 L500 700 L78 700 L78 0 L233 0 L233 293 L475 293 L475 431 L233 431 L233 562 Z " />
<glyph glyph-name="G" unicode="G" horiz-adv-x="721" d="M665 620 C605 677 519 712 407 712 C194 712 34 559 34 350 C34 141 190 -12 407 -12 C499 -12 588 2 673 31 L673 349 L518 349 L518 138 C479 130 446 128 407 128 C282 128 191 222 191 350 C191 478 284 572 407 572 C477 572 531 552 569 518 L665 620 Z " />
<glyph glyph-name="H" unicode="H" horiz-adv-x="695" d="M233 0 L233 294 L462 294 L462 0 L617 0 L617 700 L462 700 L462 432 L233 432 L233 700 L78 700 L78 0 L233 0 Z " />
<glyph glyph-name="I" unicode="I" horiz-adv-x="311" d="M233 700 L78 700 L78 0 L233 0 L233 700 Z " />
<glyph glyph-name="J" unicode="J" horiz-adv-x="524" d="M15 181 C23 64 112 -12 237 -12 C429 -12 452 137 452 242 L452 700 L296 700 L296 217 C296 180 283 128 227 128 C185 128 157 155 153 199 L15 181 Z " />
<glyph glyph-name="K" unicode="K" horiz-adv-x="692" d="M233 0 L233 234 L310 316 L523 0 L704 0 L413 423 L681 700 L479 700 L235 440 L233 440 L233 700 L78 700 L78 0 L233 0 Z " />
<glyph glyph-name="L" unicode="L" horiz-adv-x="498" d="M476 0 L476 138 L233 138 L233 700 L78 700 L78 0 L476 0 Z " />
<glyph glyph-name="M" unicode="M" horiz-adv-x="862" d="M78 0 L233 0 L233 425 L235 425 L369 95 L495 95 L627 424 L629 424 L629 0 L784 0 L784 700 L618 700 L433 291 L431 291 L244 700 L78 700 L78 0 Z " />
<glyph glyph-name="N" unicode="N" horiz-adv-x="796" d="M233 0 L233 481 L235 481 L546 0 L718 0 L718 700 L563 700 L563 219 L561 219 L250 700 L78 700 L78 0 L233 0 Z " />
<glyph glyph-name="O" unicode="O" horiz-adv-x="811" d="M777 350 C777 559 618 712 405 712 C193 712 34 559 34 350 C34 141 193 -12 405 -12 C618 -12 777 141 777 350 L777 350 Z M620 350 C620 222 537 128 407 128 C284 128 191 222 191 350 C191 478 274 572 404 572 C527 572 620 478 620 350 L620 350 Z " />
<glyph glyph-name="P" unicode="P" horiz-adv-x="623" d="M233 263 L306 263 C495 263 599 340 599 483 C599 632 491 700 306 700 L78 700 L78 0 L233 0 L233 263 Z M306 563 C392 563 442 540 442 483 C442 426 395 401 307 401 L233 401 L233 563 L306 563 Z " />
<glyph glyph-name="Q" unicode="Q" horiz-adv-x="811" d="M627 -86 C566 -86 517 -54 495 -2 C661 34 777 172 777 350 C777 559 618 712 405 712 C193 712 34 559 34 350 C34 157 169 13 355 -8 C387 -140 489 -217 627 -217 L627 -86 Z M620 350 C620 222 537 128 407 128 C284 128 191 222 191 350 C191 478 274 572 404 572 C527 572 620 478 620 350 L620 350 Z " />
<glyph glyph-name="R" unicode="R" horiz-adv-x="673" d="M492 0 L666 0 L487 296 C569 327 617 393 617 485 C617 633 508 700 324 700 L78 700 L78 0 L233 0 L233 267 L338 267 L492 0 Z M233 564 L324 564 C409 564 460 542 460 485 C460 428 412 403 325 403 L233 403 L233 564 Z " />
<glyph glyph-name="S" unicode="S" horiz-adv-x="539" d="M408 529 C437 564 465 600 494 636 C458 672 380 712 296 712 C172 712 52 644 52 504 C52 369 133 331 250 291 C293 275 345 254 345 206 C345 155 308 128 262 128 C198 128 134 165 111 187 C82 153 53 119 24 85 C68 37 158 -12 262 -12 C392 -12 502 62 502 206 C502 340 391 391 301 424 C248 444 208 458 208 504 C208 551 252 571 295 571 C343 571 389 548 408 529 L408 529 Z " />
<glyph glyph-name="T" unicode="T" horiz-adv-x="584" d="M22 562 L214 562 L214 0 L370 0 L370 562 L562 562 L562 700 L22 700 L22 562 Z " />
<glyph glyph-name="U" unicode="U" horiz-adv-x="685" d="M71 700 L71 265 C71 149 125 -12 342 -12 C560 -12 614 149 614 265 L614 700 L459 700 L459 265 C459 208 434 128 342 128 C251 128 226 208 226 265 L226 700 L71 700 Z " />
<glyph glyph-name="V" unicode="V" horiz-adv-x="682" d="M257 0 L425 0 L687 700 L524 700 L341 174 L339 174 L158 700 L-5 700 L257 0 Z " />
<glyph glyph-name="W" unicode="W" horiz-adv-x="995" d="M6 700 L207 0 L371 0 L497 471 L499 471 L623 0 L789 0 L988 700 L827 700 L706 231 L704 231 L579 700 L416 700 L291 229 L289 229 L165 700 L6 700 Z " />
<glyph glyph-name="X" unicode="X" horiz-adv-x="657" d="M662 0 L416 365 L641 700 L462 700 L329 485 L327 485 L196 700 L15 700 L239 367 L-5 0 L174 0 L326 246 L328 246 L483 0 L662 0 Z " />
<glyph glyph-name="Y" unicode="Y" horiz-adv-x="682" d="M419 0 L419 283 L690 700 L514 700 L342 407 L340 407 L169 700 L-8 700 L264 283 L264 0 L419 0 Z " />
<glyph glyph-name="Z" unicode="Z" horiz-adv-x="615" d="M46 562 L381 562 L381 560 L37 130 L37 0 L577 0 L577 138 L227 138 L227 140 L571 570 L571 700 L46 700 L46 562 Z " />
<glyph glyph-name="bracketleft" unicode="&#x5b;" horiz-adv-x="379" d="M238 -16 L238 586 L338 586 L338 724 L83 724 L83 -154 L338 -154 L338 -16 L238 -16 Z " />
<glyph glyph-name="backslash" unicode="&#x5c;" horiz-adv-x="509" d="M486 -8 L187 708 L22 708 L321 -8 L486 -8 Z " />
<glyph glyph-name="bracketright" unicode="&#x5d;" horiz-adv-x="379" d="M41 586 L141 586 L141 -16 L41 -16 L41 -154 L296 -154 L296 724 L41 724 L41 586 Z " />
<glyph glyph-name="asciicircum" unicode="&#x5e;" horiz-adv-x="677" d="M642 272 L417 700 L264 700 L35 272 L189 272 L339 566 L341 566 L489 272 L642 272 Z " />
<glyph glyph-name="underscore" unicode="&#x5f;" horiz-adv-x="557" d="M0 -193 L557 -193 L557 -55 L0 -55 L0 -193 Z " />
<glyph glyph-name="grave" unicode="&#x60;" horiz-adv-x="323" d="M288 587 L190 735 L35 735 L156 587 L288 587 Z " />
<glyph glyph-name="a" unicode="a" horiz-adv-x="562" d="M147 342 C167 361 201 376 242 376 C291 376 333 355 333 312 L333 300 C172 295 23 261 23 139 C23 24 124 -12 212 -12 C275 -12 329 18 374 58 L376 58 C404 20 452 0 501 0 C528 0 545 7 545 7 L539 137 C538 137 534 136 529 136 C499 136 485 170 485 227 L485 331 C485 452 389 512 271 512 C178 512 100 481 56 441 L147 342 Z M333 130 C307 112 276 96 241 96 C208 96 170 106 170 136 C170 184 246 196 333 198 L333 130 Z " />
<glyph glyph-name="b" unicode="b" horiz-adv-x="626" d="M60 0 L201 0 L204 67 L206 67 C230 17 298 -12 357 -12 C487 -12 594 100 594 250 C594 400 487 512 357 512 C299 512 252 488 214 451 L212 451 L212 730 L60 730 L60 0 Z M212 320 C236 354 273 376 317 376 C384 376 440 322 440 250 C440 178 384 124 317 124 C273 124 235 144 212 178 L212 320 Z " />
<glyph glyph-name="c" unicode="c" horiz-adv-x="503" d="M483 426 C447 478 384 512 296 512 C150 512 31 414 31 250 C31 95 140 -12 302 -12 C423 -12 487 74 487 74 L392 159 C392 159 360 124 300 124 C230 124 185 176 185 250 C185 329 238 376 296 376 C338 376 366 362 383 342 L483 426 Z " />
<glyph glyph-name="d" unicode="d" horiz-adv-x="653" d="M414 178 C390 144 352 124 309 124 C241 124 186 178 186 250 C186 322 241 376 309 376 C352 376 389 354 414 320 L414 178 Z M412 451 C383 479 349 498 309 506 C292 510 274 511 255 510 C131 504 32 395 32 250 C32 105 131 -4 255 -10 C274 -11 293 -11 312 -9 C370 -3 421 19 455 61 L457 61 C478 18 533 0 582 0 C609 0 626 7 626 7 L620 137 C620 137 616 136 610 136 C588 136 566 155 566 206 L566 730 L414 730 L414 451 L412 451 Z " />
<glyph glyph-name="e" unicode="e" horiz-adv-x="553" d="M427 153 C427 153 379 118 315 118 C248 118 190 155 179 216 L515 216 C517 234 519 262 519 286 C519 403 474 512 296 512 C139 512 31 414 31 250 C31 95 151 -12 313 -12 C433 -12 510 58 510 58 L427 153 Z M383 311 L187 311 C194 367 244 398 295 398 C358 398 383 365 383 311 L383 311 Z " />
<glyph glyph-name="f" unicode="f" horiz-adv-x="340" d="M357 727 C338 730 309 734 287 734 C197 734 85 725 85 551 L85 500 L33 500 L33 366 L85 366 L85 0 L237 0 L237 366 L321 366 L321 500 L237 500 L237 551 C237 595 265 598 287 598 C301 598 317 596 327 594 L357 727 Z " />
<glyph glyph-name="g" unicode="g" horiz-adv-x="613" d="M553 500 L412 500 L409 433 L407 433 C384 483 318 512 261 512 C136 512 33 401 33 264 C33 126 136 23 261 23 C317 23 363 44 399 76 L401 76 L401 32 C401 -31 334 -74 261 -74 C212 -74 172 -57 145 -38 L70 -149 C121 -184 199 -210 290 -210 C432 -210 553 -141 553 5 L553 500 Z M401 328 L401 201 C378 171 343 151 303 151 C238 151 185 198 185 263 C185 328 238 376 303 376 C343 376 378 357 401 328 L401 328 Z " />
<glyph glyph-name="h" unicode="h" horiz-adv-x="609" d="M211 0 L211 321 C236 358 266 376 311 376 C373 376 405 328 405 255 L405 0 L557 0 L557 240 C557 270 555 298 551 324 C536 433 478 504 377 510 C357 511 336 510 316 506 C276 498 240 476 213 444 L211 444 L211 730 L59 730 L59 0 L211 0 Z " />
<glyph glyph-name="i" unicode="i" horiz-adv-x="270" d="M59 596 L211 596 L211 740 L59 740 L59 596 Z M59 0 L211 0 L211 500 L59 500 L59 0 Z " />
<glyph glyph-name="j" unicode="j" horiz-adv-x="271" d="M-33 -204 C123 -204 212 -188 212 -2 L212 500 L60 500 L60 -2 C60 -62 26 -68 -33 -68 L-33 -204 Z M60 596 L212 596 L212 740 L60 740 L60 596 Z " />
<glyph glyph-name="k" unicode="k" horiz-adv-x="585" d="M211 730 L59 730 L59 0 L211 0 L211 171 L262 212 L410 0 L591 0 L372 294 L578 500 L382 500 L213 331 L211 331 L211 730 Z " />
<glyph glyph-name="l" unicode="l" horiz-adv-x="294" d="M56 730 L56 172 C56 45 134 0 217 0 C246 0 263 7 263 7 L256 137 C227 133 208 153 208 204 L208 730 L56 730 Z " />
<glyph glyph-name="m" unicode="m" horiz-adv-x="887" d="M60 500 L60 0 L212 0 L212 324 C230 357 257 376 293 376 C346 376 372 337 372 303 L372 0 L524 0 L524 324 C541 357 569 376 603 376 C659 376 684 328 684 255 L684 0 L835 0 L835 255 C835 407 767 512 643 512 C578 512 525 480 488 424 L486 424 C460 480 415 512 344 512 C289 512 237 484 206 426 L204 426 L201 500 L60 500 Z " />
<glyph glyph-name="n" unicode="n" horiz-adv-x="610" d="M60 500 L60 0 L212 0 L212 321 C237 358 267 376 312 376 C374 376 406 328 406 255 L406 0 L558 0 L558 255 C558 409 491 512 359 512 C296 512 233 484 206 425 L204 425 L201 500 L60 500 Z " />
<glyph glyph-name="o" unicode="o" horiz-adv-x="593" d="M562 250 C562 400 452 512 296 512 C142 512 31 400 31 250 C31 100 142 -12 296 -12 C452 -12 562 100 562 250 L562 250 Z M408 250 C408 178 362 124 296 124 C232 124 185 178 185 250 C185 322 232 376 296 376 C362 376 408 322 408 250 L408 250 Z " />
<glyph glyph-name="p" unicode="p" horiz-adv-x="653" d="M239 322 C263 356 301 376 344 376 C412 376 468 322 468 250 C468 178 412 124 344 124 C301 124 264 146 239 180 L239 322 Z M239 49 L241 49 C270 21 304 2 344 -6 C360 -10 378 -12 396 -11 C521 -5 621 105 621 250 C621 400 514 512 384 512 C309 512 240 491 198 439 L196 439 C175 482 120 500 71 500 C44 500 27 493 27 493 L33 363 C33 363 37 364 43 364 C65 364 87 345 87 294 L87 -200 L239 -200 L239 49 Z " />
<glyph glyph-name="q" unicode="q" horiz-adv-x="626" d="M566 500 L425 500 L422 433 L420 433 C396 483 328 512 269 512 C139 512 32 400 32 250 C32 100 139 -12 269 -12 C327 -12 374 12 412 49 L414 49 L414 -200 L566 -200 L566 500 Z M414 322 L414 180 C389 146 352 124 309 124 C241 124 186 178 186 250 C186 322 241 376 309 376 C352 376 390 356 414 322 L414 322 Z " />
<glyph glyph-name="r" unicode="r" horiz-adv-x="413" d="M212 0 L212 290 C234 345 301 364 352 364 C373 364 387 361 390 360 C394 406 399 452 403 498 C387 502 369 504 350 504 C290 504 232 466 206 408 L204 408 L201 500 L60 500 L60 0 L212 0 Z " />
<glyph glyph-name="s" unicode="s" horiz-adv-x="454" d="M406 457 C406 457 348 512 240 512 C127 512 43 463 43 360 C43 262 111 228 174 206 C223 189 268 181 268 155 C268 134 245 122 213 122 C156 122 116 158 106 167 C80 131 54 96 28 61 C28 61 101 -12 231 -12 C353 -12 422 45 422 141 C422 239 350 276 287 297 C239 313 197 322 197 344 C197 365 222 376 250 376 C306 376 340 346 340 346 L406 457 Z " />
<glyph glyph-name="t" unicode="t" horiz-adv-x="368" d="M85 676 L85 500 L28 500 L28 366 L85 366 L85 179 C85 5 197 -4 288 -4 C309 -4 338 0 357 3 L327 136 C317 134 301 132 288 132 C265 132 237 135 237 179 L237 366 L322 366 L322 500 L237 500 L237 676 L85 676 Z " />
<glyph glyph-name="u" unicode="u" horiz-adv-x="610" d="M398 500 L398 179 C373 142 343 124 298 124 C236 124 204 172 204 245 L204 500 L52 500 L52 245 C52 91 119 -12 251 -12 C314 -12 377 16 404 75 L406 75 L409 0 L550 0 L550 500 L398 500 Z " />
<glyph glyph-name="v" unicode="v" horiz-adv-x="590" d="M374 0 L587 500 L426 500 L296 161 L294 161 L165 500 L5 500 L214 0 L374 0 Z " />
<glyph glyph-name="w" unicode="w" horiz-adv-x="816" d="M318 0 L407 286 L409 286 L500 0 L657 0 L805 500 L650 500 L567 190 L565 190 L473 500 L341 500 L250 194 L248 194 L166 500 L10 500 L162 0 L318 0 Z " />
<glyph glyph-name="x" unicode="x" horiz-adv-x="547" d="M17 500 L182 263 L5 0 L179 0 L270 163 L272 163 L367 0 L544 0 L363 258 L530 500 L354 500 L275 361 L273 361 L194 500 L17 500 Z " />
<glyph glyph-name="y" unicode="y" horiz-adv-x="581" d="M5 500 L220 9 C194 -47 175 -68 114 -68 C94 -68 78 -67 57 -62 L22 -195 C53 -201 85 -204 114 -204 C273 -204 322 -139 375 -7 L574 500 L414 500 L297 158 L295 158 L168 500 L5 500 Z " />
<glyph glyph-name="z" unicode="z" horiz-adv-x="523" d="M50 366 L268 366 L268 364 L35 117 L35 0 L487 0 L487 134 L239 134 L239 136 L476 382 L476 500 L50 500 L50 366 Z " />
<glyph glyph-name="braceleft" unicode="&#x7b;" horiz-adv-x="345" d="M30 231 C65 231 79 212 79 168 L79 40 C79 -107 167 -154 263 -154 L295 -154 L295 -16 L272 -16 C253 -16 234 -6 234 24 L234 167 C234 218 217 264 182 284 L182 286 C217 305 234 352 234 402 L234 546 C234 575 253 586 272 586 L295 586 L295 724 L263 724 C167 724 79 676 79 529 L79 402 C79 358 65 339 30 339 L30 231 Z " />
<glyph glyph-name="bar" unicode="&#x7c;" horiz-adv-x="319" d="M82 -247 L237 -247 L237 742 L82 742 L82 -247 Z " />
<glyph glyph-name="braceright" unicode="&#x7d;" horiz-adv-x="345" d="M315 339 C280 339 266 358 266 402 L266 529 C266 676 178 724 82 724 L50 724 L50 586 L74 586 C92 586 111 575 111 546 L111 402 C111 352 129 305 164 286 L164 284 C129 264 111 218 111 167 L111 24 C111 -6 92 -16 74 -16 L50 -16 L50 -154 L82 -154 C178 -154 266 -107 266 40 L266 168 C266 212 280 231 315 231 L315 339 Z " />
<glyph glyph-name="asciitilde" unicode="&#x7e;" horiz-adv-x="720" d="M179 228 C186 272 200 302 231 306 C257 309 292 290 326 266 C368 236 426 214 484 214 C625 214 667 308 673 420 L547 420 C540 375 526 345 494 341 C470 338 436 356 406 378 C361 410 301 434 241 434 C101 434 59 339 53 228 L179 228 Z " />
<glyph glyph-name="nbspace" unicode="&#xa0;" horiz-adv-x="236" d="" />
<glyph glyph-name="exclamdown" unicode="&#xa1;" horiz-adv-x="303" d="M222 267 L82 267 L74 -200 L229 -200 L222 267 Z M229 500 L74 500 L74 356 L229 356 L229 500 Z " />
<glyph glyph-name="cent" unicode="&#xa2;" horiz-adv-x="534" d="M221 591 L221 499 C117 469 41 381 41 250 C41 126 111 33 221 1 L221 -91 L361 -91 L361 -6 C449 11 497 74 497 74 L402 159 C402 159 370 124 310 124 C240 124 195 176 195 250 C195 329 248 376 306 376 C348 376 376 362 393 342 L493 426 C464 466 420 496 361 506 L361 591 L221 591 Z " />
<glyph glyph-name="sterling" unicode="&#xa3;" horiz-adv-x="632" d="M55 297 L135 297 C126 207 95 123 49 79 L109 -12 C151 9 181 18 210 18 C265 18 328 -12 392 -12 C472 -12 531 7 603 62 L509 166 C475 134 449 126 421 126 C370 129 339 150 294 150 C272 150 235 145 215 132 L213 133 C246 185 273 243 286 297 L435 297 L435 420 L296 420 L296 474 C297 531 338 572 394 572 C425 572 454 559 476 546 L544 668 C506 689 457 712 394 712 C248 712 141 614 139 474 L139 420 L55 420 L55 297 Z " />
<glyph glyph-name="currency" unicode="&#xa4;" horiz-adv-x="739" d="M46 528 L135 436 C114 398 104 353 104 306 C104 258 114 213 135 174 L41 80 L150 -16 L236 69 C274 48 319 35 370 35 C421 35 466 47 504 69 L591 -16 L698 82 L605 173 C626 212 637 257 637 306 C637 354 625 400 604 438 L693 527 L584 623 L502 541 C465 562 420 574 370 574 C319 574 274 562 237 540 L157 624 L46 528 Z M370 434 C443 434 487 377 487 306 C487 234 443 175 370 175 C298 175 253 234 253 306 C253 377 298 434 370 434 L370 434 Z " />
<glyph glyph-name="yen" unicode="&#xa5;" horiz-adv-x="752" d="M142 248 L298 248 L298 194 L142 194 L142 105 L298 105 L298 0 L453 0 L453 105 L604 105 L604 194 L453 194 L453 248 L604 248 L604 337 L488 337 L726 700 L548 700 L377 407 L375 407 L204 700 L26 700 L263 337 L142 337 L142 248 Z " />
<glyph glyph-name="brokenbar" unicode="&#xa6;" horiz-adv-x="323" d="M84 321 L239 321 L239 667 L84 667 L84 321 Z M84 -173 L239 -173 L239 173 L84 173 L84 -173 Z " />
<glyph glyph-name="section" unicode="&#xa7;" horiz-adv-x="530" d="M399 536 L484 641 C448 678 375 712 294 713 C156 713 58 634 58 549 C58 511 71 474 113 445 L113 443 C75 420 39 372 39 323 C39 200 156 158 237 129 C281 112 316 93 316 63 C316 30 278 14 238 14 C190 14 144 38 124 57 L39 -47 C74 -83 161 -123 246 -123 C385 -123 474 -39 474 42 C474 92 446 133 417 154 L417 156 C447 175 489 216 489 267 C489 391 371 434 290 463 C246 480 213 499 213 526 C213 560 253 575 293 575 C336 575 379 555 399 536 L399 536 Z M225 375 L258 362 C309 341 361 319 361 276 C361 254 347 229 308 222 L278 233 C226 253 169 282 169 320 C169 344 187 367 225 375 L225 375 Z " />
<glyph glyph-name="dieresis" unicode="&#xa8;" horiz-adv-x="394" d="M35 590 L162 590 L162 723 L35 723 L35 590 Z M232 590 L359 590 L359 723 L232 723 L232 590 Z " />
<glyph glyph-name="copyright" unicode="&#xa9;" horiz-adv-x="860" d="M429 734 C190 734 39 562 39 351 C39 138 190 -34 429 -34 C670 -34 821 138 821 351 C821 562 670 734 429 734 L429 734 Z M429 644 C610 644 721 513 721 351 C721 187 610 56 429 56 C250 56 139 187 139 351 C139 513 250 644 429 644 L429 644 Z M527 277 C506 248 475 222 438 222 C369 222 319 279 319 353 C319 428 370 485 438 485 C468 485 500 468 518 442 L600 494 C565 544 502 575 438 575 C313 575 219 482 219 353 C219 226 311 132 438 132 C515 132 573 176 608 224 L527 277 Z " />
<glyph glyph-name="ordfeminine" unicode="&#xaa;" horiz-adv-x="408" d="M125 599 C135 608 152 615 172 615 C198 615 220 606 220 587 L220 582 C127 579 40 558 40 488 C40 416 101 394 153 394 C191 394 223 413 249 437 L251 437 C270 415 301 401 333 401 C352 401 364 407 364 407 L361 499 C361 499 360 498 356 498 C342 498 328 511 328 544 L328 602 C328 676 268 712 195 712 C136 712 88 693 61 669 L125 599 Z M220 512 L220 483 C207 476 193 469 177 469 C161 469 144 473 144 486 C144 506 180 512 220 512 L220 512 Z " />
<glyph glyph-name="guillemotleft" unicode="&#xab;" horiz-adv-x="645" d="M214 255 L340 476 L178 476 L34 256 L177 37 L339 37 L214 255 Z M480 255 L607 476 L445 476 L300 256 L444 37 L606 37 L480 255 Z " />
<glyph glyph-name="logicalnot" unicode="&#xac;" horiz-adv-x="660" d="M425 139 L580 139 L580 469 L43 469 L43 331 L425 331 L425 139 Z " />
<glyph glyph-name="uni00AD" unicode="&#xad;" horiz-adv-x="405" d="M52 191 L353 191 L353 329 L52 329 L52 191 Z " />
<glyph glyph-name="registered" unicode="&#xae;" horiz-adv-x="860" d="M429 734 C190 734 39 562 39 351 C39 138 190 -34 429 -34 C670 -34 821 138 821 351 C821 562 670 734 429 734 L429 734 Z M429 644 C610 644 721 513 721 351 C721 187 610 56 429 56 C250 56 139 187 139 351 C139 513 250 644 429 644 L429 644 Z M637 139 L530 314 C577 335 605 377 605 431 C605 527 535 570 416 570 L267 570 L267 139 L365 139 L365 292 L435 292 L522 139 L637 139 Z M365 481 L427 481 C475 481 503 469 503 432 C503 398 476 384 428 384 L365 384 L365 481 Z " />
<glyph glyph-name="macron" unicode="&#xaf;" horiz-adv-x="399" d="M35 598 L364 598 L364 726 L35 726 L35 598 Z " />
<glyph glyph-name="degree" unicode="&#xb0;" horiz-adv-x="418" d="M382 574 C382 675 309 747 209 747 C109 747 35 675 35 574 C35 474 109 400 209 400 C309 400 382 474 382 574 L382 574 Z M268 574 C268 540 243 515 209 515 C175 515 149 540 149 574 C149 608 175 633 209 633 C243 633 268 608 268 574 L268 574 Z " />
<glyph glyph-name="plusminus" unicode="&#xb1;" horiz-adv-x="665" d="M60 357 L255 357 L255 218 L411 218 L411 357 L605 357 L605 495 L411 495 L411 636 L255 636 L255 495 L60 495 L60 357 Z M60 5 L605 5 L605 143 L60 143 L60 5 Z " />
<glyph glyph-name="twosuperior" unicode="&#xb2;" horiz-adv-x="413" d="M358 388 L175 388 C175 400 192 416 213 430 C268 467 350 507 350 581 C350 646 295 712 201 712 C98 712 52 619 52 619 L143 572 C143 572 163 610 201 610 C225 610 238 596 238 581 C238 565 214 547 183 525 C127 485 53 436 53 351 L53 287 L358 287 L358 388 Z " />
<glyph glyph-name="threesuperior" unicode="&#xb3;" horiz-adv-x="400" d="M141 583 C143 585 150 595 169 599 C178 604 190 608 205 606 C225 604 234 588 234 573 C234 551 215 539 195 539 L155 539 L155 458 L194 458 C215 458 243 447 243 419 C243 390 225 378 194 378 C149 378 132 411 130 414 L35 379 C38 373 76 275 194 275 C293 275 357 318 357 406 C357 449 321 488 281 500 L281 502 C315 513 348 548 348 587 C348 647 300 711 195 711 C90 711 52 629 49 624 L141 583 Z " />
<glyph glyph-name="acute" unicode="&#xb4;" horiz-adv-x="323" d="M35 587 L167 587 L288 735 L134 735 L35 587 Z " />
<glyph glyph-name="mu" unicode="&#xb5;" horiz-adv-x="661" d="M79 500 L79 -200 L231 -200 L231 4 C246 -7 268 -12 294 -12 C350 -12 406 16 431 75 L433 75 L436 0 L577 0 L577 500 L425 500 L425 179 C400 142 370 124 325 124 C264 124 232 169 231 237 L231 500 L79 500 Z " />
<glyph glyph-name="paragraph" unicode="&#xb6;" horiz-adv-x="768" d="M669 700 L254 700 C115 701 28 615 28 469 C28 337 115 260 254 260 L254 -125 L409 -125 L409 562 L514 562 L514 -125 L669 -125 L669 700 Z " />
<glyph glyph-name="periodcentered" unicode="&#xb7;" horiz-adv-x="267" d="M56 262 L211 262 L211 406 L56 406 L56 262 Z " />
<glyph glyph-name="cedilla" unicode="&#xb8;" horiz-adv-x="307" d="M89 0 L51 -81 L103 -132 C117 -123 126 -120 141 -120 C155 -120 175 -126 175 -140 C175 -154 156 -158 141 -158 C112 -158 86 -152 74 -146 L35 -213 C55 -226 98 -239 143 -239 C204 -239 272 -214 272 -145 C272 -81 225 -58 184 -58 C170 -58 158 -61 151 -64 L149 -63 L210 0 L89 0 Z " />
<glyph glyph-name="onesuperior" unicode="&#xb9;" horiz-adv-x="312" d="M248 287 L248 700 L126 700 L13 607 L76 533 L135 581 L137 581 L138 287 L248 287 Z " />
<glyph glyph-name="ordmasculine" unicode="&#xba;" horiz-adv-x="396" d="M359 553 C359 644 292 712 198 712 C104 712 37 644 37 553 C37 462 104 394 198 394 C292 394 359 462 359 553 L359 553 Z M250 553 C250 518 228 491 198 491 C168 491 146 518 146 553 C146 588 168 615 198 615 C228 615 250 588 250 553 L250 553 Z " />
<glyph glyph-name="guillemotright" unicode="&#xbb;" horiz-adv-x="645" d="M468 37 L611 256 L467 476 L304 476 L431 255 L305 37 L468 37 Z M201 37 L344 256 L200 476 L38 476 L165 255 L39 37 L201 37 Z " />
<glyph glyph-name="onequarter" unicode="&#xbc;" horiz-adv-x="902" d="M525 73 L711 73 L711 0 L822 0 L822 73 L861 73 L861 176 L822 176 L822 422 L708 422 L525 178 L525 73 Z M714 171 L627 171 L627 173 L712 289 L714 289 L714 171 Z M611 726 L160 -17 L300 -17 L751 726 L611 726 Z M262 286 L262 708 L140 708 L27 615 L90 541 L149 589 L151 589 L152 286 L262 286 Z " />
<glyph glyph-name="onehalf" unicode="&#xbd;" horiz-adv-x="938" d="M751 726 L611 726 L160 -17 L300 -17 L751 726 Z M262 286 L262 708 L140 708 L27 615 L90 541 L149 589 L151 589 L152 286 L262 286 Z M893 101 L709 101 C709 114 726 131 747 145 C802 182 885 222 885 297 C885 363 829 429 734 429 C631 429 585 335 585 335 L676 289 C676 289 696 326 734 326 C759 326 772 312 772 297 C772 281 747 263 716 240 C661 201 586 150 586 65 L586 0 L893 0 L893 101 Z " />
<glyph glyph-name="threequarters" unicode="&#xbe;" horiz-adv-x="917" d="M547 73 L733 73 L733 0 L844 0 L844 73 L883 73 L883 176 L844 176 L844 422 L730 422 L547 178 L547 73 Z M736 171 L649 171 L649 173 L734 289 L736 289 L736 171 Z M773 726 L633 726 L182 -17 L322 -17 L773 726 Z M138 592 C140 594 147 604 166 608 C175 613 187 617 202 615 C222 613 231 597 231 582 C231 560 212 548 192 548 L152 548 L152 467 L191 467 C212 467 240 456 240 428 C240 399 222 387 191 387 C146 387 129 420 127 423 L32 388 C35 382 73 284 191 284 C290 284 354 327 354 415 C354 458 318 497 278 509 L278 511 C312 522 345 557 345 596 C345 656 297 720 192 720 C87 720 49 638 46 633 L138 592 Z " />
<glyph glyph-name="questiondown" unicode="&#xbf;" horiz-adv-x="515" d="M345 500 L190 500 L190 356 L345 356 L345 500 Z M190 267 L190 231 C190 194 175 178 142 154 C86 113 37 71 37 -19 C37 -142 136 -210 260 -210 C378 -210 465 -144 488 -36 L352 -6 C338 -50 300 -70 260 -70 C223 -70 194 -52 194 -19 C194 9 212 25 234 41 C312 99 345 136 345 231 L345 267 L190 267 Z " />
<glyph glyph-name="Agrave" unicode="&#xc0;" horiz-adv-x="706" d="M154 0 L-9 0 L271 700 L436 700 L714 0 L551 0 L497 135 L209 135 L154 0 Z M353 538 L263 271 L443 271 L355 538 L353 538 Z M420 757 L322 905 L167 905 L288 757 L420 757 Z " />
<glyph glyph-name="Aacute" unicode="&#xc1;" horiz-adv-x="706" d="M154 0 L-9 0 L271 700 L436 700 L714 0 L551 0 L497 135 L209 135 L154 0 Z M353 538 L263 271 L443 271 L355 538 L353 538 Z M287 757 L419 757 L540 905 L385 905 L287 757 Z " />
<glyph glyph-name="Acircumflex" unicode="&#xc2;" horiz-adv-x="706" d="M154 0 L-9 0 L271 700 L436 700 L714 0 L551 0 L497 135 L209 135 L154 0 Z M353 538 L263 271 L443 271 L355 538 L353 538 Z M172 758 L294 758 L352 822 L354 822 L410 758 L532 758 L418 906 L288 906 L172 758 Z " />
<glyph glyph-name="Atilde" unicode="&#xc3;" horiz-adv-x="706" d="M154 0 L-9 0 L271 700 L436 700 L714 0 L551 0 L497 135 L209 135 L154 0 Z M353 538 L263 271 L443 271 L355 538 L353 538 Z M270 763 C275 785 282 798 295 800 C307 802 325 791 340 779 C361 763 390 754 419 754 C500 754 531 816 534 893 L441 893 C437 871 430 859 417 857 C406 855 389 865 375 876 C353 893 323 903 294 903 C212 903 181 840 178 763 L270 763 Z " />
<glyph glyph-name="Adieresis" unicode="&#xc4;" horiz-adv-x="706" d="M154 0 L-9 0 L271 700 L436 700 L714 0 L551 0 L497 135 L209 135 L154 0 Z M353 538 L263 271 L443 271 L355 538 L353 538 Z M193 767 L320 767 L320 900 L193 900 L193 767 Z M389 767 L516 767 L516 900 L389 900 L389 767 Z " />
<glyph glyph-name="Aring" unicode="&#xc5;" horiz-adv-x="706" d="M471 847 C471 912 417 963 355 963 C291 963 238 912 238 847 C238 781 291 732 355 732 C417 732 471 781 471 847 L471 847 Z M386 847 C386 830 371 817 355 817 C337 817 324 830 324 847 C324 865 337 877 355 877 C371 877 386 865 386 847 L386 847 Z M154 0 L-9 0 L271 700 L436 700 L714 0 L551 0 L497 135 L209 135 L154 0 Z M353 538 L263 271 L443 271 L355 538 L353 538 Z " />
<glyph glyph-name="AE" unicode="&#xc6;" horiz-adv-x="969" d="M-14 0 L157 0 L235 137 L482 137 L482 0 L928 0 L928 138 L637 138 L637 295 L892 295 L892 433 L637 433 L637 562 L916 562 L916 700 L375 700 L-14 0 Z M472 578 L482 578 L482 273 L304 273 L472 578 Z " />
<glyph glyph-name="Ccedilla" unicode="&#xc7;" horiz-adv-x="685" d="M558 196 C532 160 480 128 407 128 C282 128 191 222 191 350 C191 478 284 572 407 572 C466 572 521 552 548 520 L661 603 C612 670 511 712 407 712 C194 712 34 559 34 350 C34 170 149 32 319 -3 L283 -81 L335 -132 C349 -123 358 -120 373 -120 C387 -120 408 -126 408 -140 C408 -154 389 -158 373 -158 C344 -158 319 -152 306 -146 L267 -213 C287 -226 330 -239 375 -239 C436 -239 504 -214 504 -145 C504 -81 457 -58 417 -58 C402 -58 390 -61 383 -64 L381 -63 L432 -11 C547 -4 629 52 674 116 L558 196 Z " />
<glyph glyph-name="Egrave" unicode="&#xc8;" horiz-adv-x="565" d="M233 138 L233 295 L488 295 L488 433 L233 433 L233 562 L512 562 L512 700 L78 700 L78 0 L524 0 L524 138 L233 138 Z M392 757 L293 905 L138 905 L259 757 L392 757 Z " />
<glyph glyph-name="Eacute" unicode="&#xc9;" horiz-adv-x="565" d="M233 138 L233 295 L488 295 L488 433 L233 433 L233 562 L512 562 L512 700 L78 700 L78 0 L524 0 L524 138 L233 138 Z M208 757 L341 757 L462 905 L307 905 L208 757 Z " />
<glyph glyph-name="Ecircumflex" unicode="&#xca;" horiz-adv-x="565" d="M233 138 L233 295 L488 295 L488 433 L233 433 L233 562 L512 562 L512 700 L78 700 L78 0 L524 0 L524 138 L233 138 Z M119 758 L240 758 L298 822 L300 822 L357 758 L479 758 L364 906 L234 906 L119 758 Z " />
<glyph glyph-name="Edieresis" unicode="&#xcb;" horiz-adv-x="565" d="M233 138 L233 295 L488 295 L488 433 L233 433 L233 562 L512 562 L512 700 L78 700 L78 0 L524 0 L524 138 L233 138 Z M137 767 L264 767 L264 900 L137 900 L137 767 Z M334 767 L461 767 L461 900 L334 900 L334 767 Z " />
<glyph glyph-name="Igrave" unicode="&#xcc;" horiz-adv-x="310" d="M222 757 L124 905 L-31 905 L90 757 L222 757 Z M233 0 L78 0 L78 700 L233 700 L233 0 Z " />
<glyph glyph-name="Iacute" unicode="&#xcd;" horiz-adv-x="311" d="M88 757 L221 757 L342 905 L187 905 L88 757 Z M232 0 L77 0 L77 700 L232 700 L232 0 Z " />
<glyph glyph-name="Icircumflex" unicode="&#xce;" horiz-adv-x="311" d="M-25 758 L97 758 L154 822 L156 822 L213 758 L335 758 L221 906 L91 906 L-25 758 Z M233 0 L78 0 L78 700 L233 700 L233 0 Z " />
<glyph glyph-name="Idieresis" unicode="&#xcf;" horiz-adv-x="312" d="M0 767 L123 767 L123 900 L0 900 L0 767 Z M188 767 L312 767 L312 900 L188 900 L188 767 Z M233 0 L78 0 L78 700 L233 700 L233 0 Z " />
<glyph glyph-name="Eth" unicode="&#xd0;" horiz-adv-x="723" d="M15 300 L87 300 L87 0 L320 0 C495 0 688 117 688 351 C688 584 495 700 320 700 L87 700 L87 423 L15 423 L15 300 Z M242 562 L320 562 C420 562 531 491 531 351 C531 210 420 138 320 138 L242 138 L242 300 L413 300 L413 423 L242 423 L242 562 Z " />
<glyph glyph-name="Ntilde" unicode="&#xd1;" horiz-adv-x="796" d="M315 763 C319 785 327 798 340 800 C352 802 369 791 385 779 C406 763 435 754 463 754 C545 754 576 816 579 893 L486 893 C482 871 475 859 462 857 C451 855 434 865 420 876 C398 893 368 903 338 903 C257 903 226 840 223 763 L315 763 Z M233 0 L233 481 L235 481 L546 0 L718 0 L718 700 L563 700 L563 219 L561 219 L250 700 L78 700 L78 0 L233 0 Z " />
<glyph glyph-name="Ograve" unicode="&#xd2;" horiz-adv-x="811" d="M777 350 C777 559 618 712 405 712 C193 712 34 559 34 350 C34 141 193 -12 405 -12 C618 -12 777 141 777 350 L777 350 Z M620 350 C620 222 537 128 407 128 C284 128 191 222 191 350 C191 478 274 572 404 572 C527 572 620 478 620 350 L620 350 Z M514 757 L415 905 L260 905 L381 757 L514 757 Z " />
<glyph glyph-name="Oacute" unicode="&#xd3;" horiz-adv-x="811" d="M777 350 C777 559 618 712 405 712 C193 712 34 559 34 350 C34 141 193 -12 405 -12 C618 -12 777 141 777 350 L777 350 Z M620 350 C620 222 537 128 407 128 C284 128 191 222 191 350 C191 478 274 572 404 572 C527 572 620 478 620 350 L620 350 Z M315 757 L448 757 L569 905 L414 905 L315 757 Z " />
<glyph glyph-name="Ocircumflex" unicode="&#xd4;" horiz-adv-x="811" d="M777 350 C777 559 618 712 405 712 C193 712 34 559 34 350 C34 141 193 -12 405 -12 C618 -12 777 141 777 350 L777 350 Z M620 350 C620 222 537 128 407 128 C284 128 191 222 191 350 C191 478 274 572 404 572 C527 572 620 478 620 350 L620 350 Z M226 758 L347 758 L405 822 L407 822 L464 758 L586 758 L471 906 L341 906 L226 758 Z " />
<glyph glyph-name="Otilde" unicode="&#xd5;" horiz-adv-x="811" d="M777 350 C777 559 618 712 405 712 C193 712 34 559 34 350 C34 141 193 -12 405 -12 C618 -12 777 141 777 350 L777 350 Z M620 350 C620 222 537 128 407 128 C284 128 191 222 191 350 C191 478 274 572 404 572 C527 572 620 478 620 350 L620 350 Z M323 763 C327 785 334 798 347 800 C360 802 377 791 392 779 C413 763 443 754 471 754 C552 754 583 816 587 893 L493 893 C490 871 483 859 470 857 C459 855 442 865 427 876 C405 893 375 903 346 903 C264 903 233 840 230 763 L323 763 Z " />
<glyph glyph-name="Odieresis" unicode="&#xd6;" horiz-adv-x="811" d="M777 350 C777 559 618 712 405 712 C193 712 34 559 34 350 C34 141 193 -12 405 -12 C618 -12 777 141 777 350 L777 350 Z M620 350 C620 222 537 128 407 128 C284 128 191 222 191 350 C191 478 274 572 404 572 C527 572 620 478 620 350 L620 350 Z M244 767 L371 767 L371 900 L244 900 L244 767 Z M441 767 L568 767 L568 900 L441 900 L441 767 Z " />
<glyph glyph-name="multiply" unicode="&#xd7;" horiz-adv-x="586" d="M430 564 L293 427 L155 567 L45 469 L190 323 L47 179 L156 81 L293 219 L429 82 L539 180 L397 323 L540 467 L430 564 Z " />
<glyph glyph-name="Oslash" unicode="&#xd8;" horiz-adv-x="811" d="M49 63 L151 -20 L207 39 C264 5 332 -14 406 -14 C619 -14 778 139 778 348 C778 435 750 512 703 572 L766 639 L663 722 L603 658 C547 691 480 710 406 710 C194 710 35 557 35 348 C35 262 62 186 108 126 L49 63 Z M304 153 L591 461 C610 429 621 391 621 348 C621 221 538 126 408 126 C369 126 334 136 304 153 L304 153 Z M506 544 L220 237 C202 269 192 307 192 348 C192 476 275 570 405 570 C442 570 476 561 506 544 L506 544 Z " />
<glyph glyph-name="Ugrave" unicode="&#xd9;" horiz-adv-x="685" d="M71 700 L71 265 C71 149 125 -12 342 -12 C560 -12 614 149 614 265 L614 700 L459 700 L459 265 C459 208 434 128 342 128 C251 128 226 208 226 265 L226 700 L71 700 Z M438 757 L339 905 L185 905 L306 757 L438 757 Z " />
<glyph glyph-name="Uacute" unicode="&#xda;" horiz-adv-x="685" d="M71 700 L71 265 C71 149 125 -12 342 -12 C560 -12 614 149 614 265 L614 700 L459 700 L459 265 C459 208 434 128 342 128 C251 128 226 208 226 265 L226 700 L71 700 Z M258 757 L390 757 L511 905 L356 905 L258 757 Z " />
<glyph glyph-name="Ucircumflex" unicode="&#xdb;" horiz-adv-x="685" d="M71 700 L71 265 C71 149 125 -12 342 -12 C560 -12 614 149 614 265 L614 700 L459 700 L459 265 C459 208 434 128 342 128 C251 128 226 208 226 265 L226 700 L71 700 Z M162 758 L284 758 L341 822 L343 822 L400 758 L522 758 L408 906 L278 906 L162 758 Z " />
<glyph glyph-name="Udieresis" unicode="&#xdc;" horiz-adv-x="685" d="M71 700 L71 265 C71 149 125 -12 342 -12 C560 -12 614 149 614 265 L614 700 L459 700 L459 265 C459 208 434 128 342 128 C251 128 226 208 226 265 L226 700 L71 700 Z M180 767 L307 767 L307 900 L180 900 L180 767 Z M377 767 L504 767 L504 900 L377 900 L377 767 Z " />
<glyph glyph-name="Yacute" unicode="&#xdd;" horiz-adv-x="684" d="M419 0 L419 283 L692 700 L514 700 L343 407 L341 407 L170 700 L-8 700 L264 283 L264 0 L419 0 Z M275 757 L408 757 L529 905 L374 905 L275 757 Z " />
<glyph glyph-name="Thorn" unicode="&#xde;" horiz-adv-x="618" d="M78 0 L233 0 L233 143 L306 143 C495 143 599 218 599 361 C599 510 491 576 306 576 L233 576 L233 700 L78 700 L78 0 Z M233 439 L306 439 C392 439 442 418 442 361 C442 304 395 281 307 281 L233 281 L233 439 Z " />
<glyph glyph-name="germandbls" unicode="&#xdf;" horiz-adv-x="641" d="M60 0 L212 0 L212 522 C212 576 248 603 299 603 C361 603 387 571 387 536 C387 493 342 465 320 448 C292 427 266 400 266 372 C266 338 306 316 348 295 C387 275 466 245 466 198 C466 152 415 132 344 132 C312 132 292 136 273 139 L256 4 C280 0 302 -4 344 -4 C503 -4 620 52 620 181 C620 283 512 334 442 367 C428 374 422 379 422 382 C422 385 424 387 429 391 C472 420 540 465 540 544 C540 633 476 739 299 739 C160 739 60 669 60 522 L60 0 Z " />
<glyph glyph-name="agrave" unicode="&#xe0;" horiz-adv-x="562" d="M56 441 C100 481 178 512 271 512 C389 512 485 452 485 331 L485 227 C485 170 499 136 529 136 C534 136 538 137 539 137 L545 7 C545 7 528 0 501 0 C452 0 404 20 376 58 L374 58 C329 18 275 -12 212 -12 C124 -12 23 24 23 139 C23 261 172 295 333 300 L333 312 C333 355 291 376 242 376 C201 376 167 361 147 342 L56 441 Z M333 130 L333 198 C246 196 170 184 170 136 C170 106 208 96 241 96 C276 96 307 112 333 130 L333 130 Z M368 587 L269 735 L115 735 L236 587 L368 587 Z " />
<glyph glyph-name="aacute" unicode="&#xe1;" horiz-adv-x="562" d="M56 441 C100 481 178 512 271 512 C389 512 485 452 485 331 L485 227 C485 170 499 136 529 136 C534 136 538 137 539 137 L545 7 C545 7 528 0 501 0 C452 0 404 20 376 58 L374 58 C329 18 275 -12 212 -12 C124 -12 23 24 23 139 C23 261 172 295 333 300 L333 312 C333 355 291 376 242 376 C201 376 167 361 147 342 L56 441 Z M333 130 L333 198 C246 196 170 184 170 136 C170 106 208 96 241 96 C276 96 307 112 333 130 L333 130 Z M191 587 L324 587 L445 735 L290 735 L191 587 Z " />
<glyph glyph-name="acircumflex" unicode="&#xe2;" horiz-adv-x="562" d="M56 441 C100 481 178 512 271 512 C389 512 485 452 485 331 L485 227 C485 170 499 136 529 136 C534 136 538 137 539 137 L545 7 C545 7 528 0 501 0 C452 0 404 20 376 58 L374 58 C329 18 275 -12 212 -12 C124 -12 23 24 23 139 C23 261 172 295 333 300 L333 312 C333 355 291 376 242 376 C201 376 167 361 147 342 L56 441 Z M333 130 L333 198 C246 196 170 184 170 136 C170 106 208 96 241 96 C276 96 307 112 333 130 L333 130 Z M94 587 L215 587 L273 650 L275 650 L332 587 L454 587 L339 735 L209 735 L94 587 Z " />
<glyph glyph-name="atilde" unicode="&#xe3;" horiz-adv-x="562" d="M56 441 C100 481 178 512 271 512 C389 512 485 452 485 331 L485 227 C485 170 499 136 529 136 C534 136 538 137 539 137 L545 7 C545 7 528 0 501 0 C452 0 404 20 376 58 L374 58 C329 18 275 -12 212 -12 C124 -12 23 24 23 139 C23 261 172 295 333 300 L333 312 C333 355 291 376 242 376 C201 376 167 361 147 342 L56 441 Z M333 130 L333 198 C246 196 170 184 170 136 C170 106 208 96 241 96 C276 96 307 112 333 130 L333 130 Z M183 604 C187 626 194 639 207 641 C220 643 237 632 252 620 C273 604 303 595 331 595 C412 595 443 657 447 735 L353 735 C350 713 343 700 330 698 C319 696 302 707 287 718 C265 735 236 744 206 744 C125 744 93 682 90 604 L183 604 Z " />
<glyph glyph-name="adieresis" unicode="&#xe4;" horiz-adv-x="562" d="M56 441 C100 481 178 512 271 512 C389 512 485 452 485 331 L485 227 C485 170 499 136 529 136 C534 136 538 137 539 137 L545 7 C545 7 528 0 501 0 C452 0 404 20 376 58 L374 58 C329 18 275 -12 212 -12 C124 -12 23 24 23 139 C23 261 172 295 333 300 L333 312 C333 355 291 376 242 376 C201 376 167 361 147 342 L56 441 Z M333 130 L333 198 C246 196 170 184 170 136 C170 106 208 96 241 96 C276 96 307 112 333 130 L333 130 Z M108 590 L235 590 L235 723 L108 723 L108 590 Z M305 590 L432 590 L432 723 L305 723 L305 590 Z " />
<glyph glyph-name="aring" unicode="&#xe5;" horiz-adv-x="562" d="M385 677 C385 742 331 792 269 792 C206 792 153 742 153 677 C153 611 206 562 269 562 C331 562 385 611 385 677 L385 677 Z M300 677 C300 660 286 647 269 647 C252 647 238 660 238 677 C238 695 252 707 269 707 C286 707 300 695 300 677 L300 677 Z M56 441 C100 481 178 512 271 512 C389 512 485 452 485 331 L485 227 C485 170 499 136 529 136 C534 136 538 137 539 137 L545 7 C545 7 528 0 501 0 C452 0 404 20 376 58 L374 58 C329 18 275 -12 212 -12 C124 -12 23 24 23 139 C23 261 172 295 333 300 L333 312 C333 355 291 376 242 376 C201 376 167 361 147 342 L56 441 Z M333 130 L333 198 C246 196 170 184 170 136 C170 106 208 96 241 96 C276 96 307 112 333 130 L333 130 Z " />
<glyph glyph-name="ae" unicode="&#xe6;" horiz-adv-x="854" d="M147 342 C167 361 201 376 242 376 C291 376 333 355 333 312 L333 300 C172 295 23 261 23 139 C23 24 124 -12 212 -12 C292 -12 371 20 407 80 L409 80 C453 23 522 -12 615 -12 C735 -12 812 58 812 58 L729 153 C729 153 682 118 617 118 C550 118 492 155 481 216 L817 216 C819 234 821 262 821 286 C821 403 764 512 598 512 C526 512 464 487 425 444 L423 444 C393 489 336 512 271 512 C186 512 100 481 56 441 L147 342 Z M333 198 L333 160 C333 113 277 96 241 96 C208 96 170 106 170 136 C170 184 245 196 333 198 L333 198 Z M685 311 L489 311 C497 367 546 398 597 398 C660 398 685 365 685 311 L685 311 Z " />
<glyph glyph-name="ccedilla" unicode="&#xe7;" horiz-adv-x="504" d="M484 426 C448 478 385 512 297 512 C151 512 32 414 32 250 C32 125 103 31 215 0 L177 -81 L229 -132 C243 -123 253 -120 267 -120 C281 -120 302 -126 302 -140 C302 -154 283 -158 267 -158 C239 -158 213 -152 200 -146 L162 -213 C182 -226 225 -239 269 -239 C330 -239 398 -214 398 -145 C398 -81 351 -58 311 -58 C296 -58 284 -61 277 -64 C276 -64 276 -63 275 -63 L326 -10 C432 0 488 74 488 74 L393 159 C393 159 361 124 301 124 C231 124 186 176 186 250 C186 329 239 376 297 376 C339 376 367 362 384 342 L484 426 Z " />
<glyph glyph-name="egrave" unicode="&#xe8;" horiz-adv-x="553" d="M366 587 L267 735 L112 735 L233 587 L366 587 Z M427 153 C427 153 379 118 315 118 C248 118 190 155 179 216 L515 216 C517 234 519 262 519 286 C519 403 474 512 296 512 C139 512 31 414 31 250 C31 95 151 -12 313 -12 C433 -12 510 58 510 58 L427 153 Z M383 311 L187 311 C194 367 244 398 295 398 C358 398 383 365 383 311 L383 311 Z " />
<glyph glyph-name="eacute" unicode="&#xe9;" horiz-adv-x="553" d="M208 587 L341 587 L462 735 L307 735 L208 587 Z M427 153 C427 153 379 118 315 118 C248 118 190 155 179 216 L515 216 C517 234 519 262 519 286 C519 403 474 512 296 512 C139 512 31 414 31 250 C31 95 151 -12 313 -12 C433 -12 510 58 510 58 L427 153 Z M383 311 L187 311 C194 367 244 398 295 398 C358 398 383 365 383 311 L383 311 Z " />
<glyph glyph-name="ecircumflex" unicode="&#xea;" horiz-adv-x="553" d="M109 587 L230 587 L288 650 L290 650 L347 587 L469 587 L354 735 L224 735 L109 587 Z M427 153 C427 153 379 118 315 118 C248 118 190 155 179 216 L515 216 C517 234 519 262 519 286 C519 403 474 512 296 512 C139 512 31 414 31 250 C31 95 151 -12 313 -12 C433 -12 510 58 510 58 L427 153 Z M383 311 L187 311 C194 367 244 398 295 398 C358 398 383 365 383 311 L383 311 Z " />
<glyph glyph-name="edieresis" unicode="&#xeb;" horiz-adv-x="553" d="M127 590 L254 590 L254 723 L127 723 L127 590 Z M324 590 L451 590 L451 723 L324 723 L324 590 Z M427 153 C427 153 379 118 315 118 C248 118 190 155 179 216 L515 216 C517 234 519 262 519 286 C519 403 474 512 296 512 C139 512 31 414 31 250 C31 95 151 -12 313 -12 C433 -12 510 58 510 58 L427 153 Z M383 311 L187 311 C194 367 244 398 295 398 C358 398 383 365 383 311 L383 311 Z " />
<glyph glyph-name="igrave" unicode="&#xec;" horiz-adv-x="269" d="M59 0 L211 0 L211 500 L59 500 L59 0 Z M200 587 L102 735 L-53 735 L68 587 L200 587 Z " />
<glyph glyph-name="iacute" unicode="&#xed;" horiz-adv-x="269" d="M58 0 L210 0 L210 500 L58 500 L58 0 Z M68 587 L201 587 L322 735 L167 735 L68 587 Z " />
<glyph glyph-name="icircumflex" unicode="&#xee;" horiz-adv-x="271" d="M60 0 L211 0 L211 500 L60 500 L60 0 Z M-44 587 L78 587 L135 650 L137 650 L194 587 L316 587 L202 735 L72 735 L-44 587 Z " />
<glyph glyph-name="idieresis" unicode="&#xef;" horiz-adv-x="270" d="M59 0 L211 0 L211 500 L59 500 L59 0 Z M-20 590 L103 590 L103 723 L-20 723 L-20 590 Z M168 590 L292 590 L292 723 L168 723 L168 590 Z " />
<glyph glyph-name="eth" unicode="&#xf0;" horiz-adv-x="583" d="M132 491 L241 570 C287 537 330 501 368 461 L367 459 C346 468 314 477 290 477 C140 477 31 373 31 233 C31 92 140 -12 290 -12 C443 -12 550 93 550 240 C550 402 449 526 321 628 L396 683 L348 748 L253 679 C219 702 185 724 151 745 L101 659 C123 646 146 632 168 618 L84 557 L132 491 Z M396 233 C396 171 353 124 290 124 C229 124 185 171 185 233 C185 294 229 341 290 341 C353 341 396 294 396 233 L396 233 Z " />
<glyph glyph-name="ntilde" unicode="&#xf1;" horiz-adv-x="610" d="M212 0 L212 321 C237 358 267 376 312 376 C374 376 406 328 406 255 L406 0 L558 0 L558 255 C558 409 491 512 359 512 C296 512 233 484 206 425 L204 425 L201 500 L60 500 L60 0 L212 0 Z M225 604 C230 626 237 639 250 641 C262 643 280 632 295 620 C316 604 345 595 374 595 C455 595 486 657 489 735 L396 735 C392 713 385 700 372 698 C361 696 344 707 330 718 C308 735 278 744 249 744 C167 744 136 682 133 604 L225 604 Z " />
<glyph glyph-name="ograve" unicode="&#xf2;" horiz-adv-x="593" d="M562 250 C562 400 452 512 296 512 C142 512 31 400 31 250 C31 100 142 -12 296 -12 C452 -12 562 100 562 250 L562 250 Z M408 250 C408 178 362 124 296 124 C232 124 185 178 185 250 C185 322 232 376 296 376 C362 376 408 322 408 250 L408 250 Z M374 587 L276 735 L121 735 L242 587 L374 587 Z " />
<glyph glyph-name="oacute" unicode="&#xf3;" horiz-adv-x="593" d="M562 250 C562 400 452 512 296 512 C142 512 31 400 31 250 C31 100 142 -12 296 -12 C452 -12 562 100 562 250 L562 250 Z M408 250 C408 178 362 124 296 124 C232 124 185 178 185 250 C185 322 232 376 296 376 C362 376 408 322 408 250 L408 250 Z M219 587 L352 587 L473 735 L318 735 L219 587 Z " />
<glyph glyph-name="ocircumflex" unicode="&#xf4;" horiz-adv-x="593" d="M562 250 C562 400 452 512 296 512 C142 512 31 400 31 250 C31 100 142 -12 296 -12 C452 -12 562 100 562 250 L562 250 Z M408 250 C408 178 362 124 296 124 C232 124 185 178 185 250 C185 322 232 376 296 376 C362 376 408 322 408 250 L408 250 Z M116 587 L237 587 L295 650 L297 650 L354 587 L476 587 L361 735 L231 735 L116 587 Z " />
<glyph glyph-name="otilde" unicode="&#xf5;" horiz-adv-x="593" d="M562 250 C562 400 452 512 296 512 C142 512 31 400 31 250 C31 100 142 -12 296 -12 C452 -12 562 100 562 250 L562 250 Z M408 250 C408 178 362 124 296 124 C232 124 185 178 185 250 C185 322 232 376 296 376 C362 376 408 322 408 250 L408 250 Z M211 604 C215 626 222 639 235 641 C248 643 265 632 280 620 C301 604 331 595 359 595 C440 595 471 657 475 735 L381 735 C378 713 371 700 358 698 C347 696 330 707 315 718 C293 735 264 744 234 744 C153 744 121 682 118 604 L211 604 Z " />
<glyph glyph-name="odieresis" unicode="&#xf6;" horiz-adv-x="593" d="M562 250 C562 400 452 512 296 512 C142 512 31 400 31 250 C31 100 142 -12 296 -12 C452 -12 562 100 562 250 L562 250 Z M408 250 C408 178 362 124 296 124 C232 124 185 178 185 250 C185 322 232 376 296 376 C362 376 408 322 408 250 L408 250 Z M134 590 L261 590 L261 723 L134 723 L134 590 Z M331 590 L458 590 L458 723 L331 723 L331 590 Z " />
<glyph glyph-name="divide" unicode="&#xf7;" horiz-adv-x="637" d="M46 255 L591 255 L591 393 L46 393 L46 255 Z M241 47 L397 47 L397 190 L241 190 L241 47 Z M241 457 L397 457 L397 600 L241 600 L241 457 Z " />
<glyph glyph-name="oslash" unicode="&#xf8;" horiz-adv-x="608" d="M104 -28 L159 28 C200 2 250 -12 306 -12 C462 -12 572 100 572 250 C572 308 555 361 525 404 L580 460 L504 527 L452 472 C411 497 361 512 306 512 C152 512 41 400 41 250 C41 192 57 140 86 98 L28 40 L104 -28 Z M418 250 C418 178 372 124 306 124 C287 124 270 128 255 136 L411 296 C415 282 418 266 418 250 L418 250 Z M195 250 C195 322 242 376 306 376 C325 376 342 371 357 363 L201 206 C197 219 195 234 195 250 L195 250 Z " />
<glyph glyph-name="ugrave" unicode="&#xf9;" horiz-adv-x="610" d="M398 500 L398 179 C373 142 343 124 298 124 C236 124 204 172 204 245 L204 500 L52 500 L52 245 C52 91 119 -12 251 -12 C314 -12 377 16 404 75 L406 75 L409 0 L550 0 L550 500 L398 500 Z M388 587 L289 735 L134 735 L255 587 L388 587 Z " />
<glyph glyph-name="uacute" unicode="&#xfa;" horiz-adv-x="610" d="M398 500 L398 179 C373 142 343 124 298 124 C236 124 204 172 204 245 L204 500 L52 500 L52 245 C52 91 119 -12 251 -12 C314 -12 377 16 404 75 L406 75 L409 0 L550 0 L550 500 L398 500 Z M213 587 L346 587 L467 735 L312 735 L213 587 Z " />
<glyph glyph-name="ucircumflex" unicode="&#xfb;" horiz-adv-x="610" d="M398 500 L398 179 C373 142 343 124 298 124 C236 124 204 172 204 245 L204 500 L52 500 L52 245 C52 91 119 -12 251 -12 C314 -12 377 16 404 75 L406 75 L409 0 L550 0 L550 500 L398 500 Z M121 587 L242 587 L300 650 L302 650 L359 587 L481 587 L366 735 L236 735 L121 587 Z " />
<glyph glyph-name="udieresis" unicode="&#xfc;" horiz-adv-x="610" d="M398 500 L398 179 C373 142 343 124 298 124 C236 124 204 172 204 245 L204 500 L52 500 L52 245 C52 91 119 -12 251 -12 C314 -12 377 16 404 75 L406 75 L409 0 L550 0 L550 500 L398 500 Z M139 590 L266 590 L266 723 L139 723 L139 590 Z M336 590 L463 590 L463 723 L336 723 L336 590 Z " />
<glyph glyph-name="yacute" unicode="&#xfd;" horiz-adv-x="581" d="M5 500 L220 9 C194 -47 175 -68 114 -68 C94 -68 78 -67 57 -62 L22 -195 C53 -201 85 -204 114 -204 C273 -204 322 -139 375 -7 L574 500 L414 500 L297 158 L295 158 L168 500 L5 500 Z M215 587 L347 587 L468 735 L313 735 L215 587 Z " />
<glyph glyph-name="thorn" unicode="&#xfe;" horiz-adv-x="625" d="M59 -200 L211 -200 L211 49 L213 49 C251 12 298 -12 356 -12 C486 -12 593 100 593 250 C593 400 491 512 364 512 C301 512 241 481 213 433 L211 433 L211 730 L59 730 L59 -200 Z M211 322 C234 356 272 376 316 376 C383 376 439 322 439 250 C439 178 383 124 316 124 C272 124 235 146 211 180 L211 322 Z " />
<glyph glyph-name="ydieresis" unicode="&#xff;" horiz-adv-x="581" d="M5 500 L220 9 C194 -47 175 -68 114 -68 C94 -68 78 -67 57 -62 L22 -195 C53 -201 85 -204 114 -204 C273 -204 322 -139 375 -7 L574 500 L414 500 L297 158 L295 158 L168 500 L5 500 Z M134 590 L261 590 L261 723 L134 723 L134 590 Z M331 590 L458 590 L458 723 L331 723 L331 590 Z " />
<glyph glyph-name="OE" unicode="&#x152;" horiz-adv-x="942" d="M901 0 L901 138 L610 138 L610 295 L865 295 L865 433 L610 433 L610 562 L889 562 L889 700 L383 700 C184 700 36 553 36 350 C36 147 184 0 383 0 L901 0 Z M455 562 L455 138 L383 138 C274 138 193 228 193 350 C193 472 274 562 383 562 L455 562 Z " />
<glyph glyph-name="oe" unicode="&#x153;" horiz-adv-x="930" d="M804 153 C804 153 757 118 692 118 C625 118 567 155 557 216 L893 216 C894 234 897 262 897 286 C897 403 843 512 674 512 C593 512 524 481 485 429 L483 429 C443 480 375 512 296 512 C147 512 31 400 31 250 C31 100 147 -12 296 -12 C378 -12 448 22 487 76 L489 76 C531 21 606 -12 690 -12 C804 -12 887 58 887 58 L804 153 Z M761 311 L564 311 C572 367 622 398 673 398 C735 398 761 365 761 311 L761 311 Z M408 250 C408 178 362 124 296 124 C232 124 185 178 185 250 C185 322 232 376 296 376 C362 376 408 322 408 250 L408 250 Z " />
<glyph glyph-name="Scaron" unicode="&#x160;" horiz-adv-x="539" d="M408 529 C437 564 465 600 494 636 C458 672 380 712 296 712 C172 712 52 644 52 504 C52 369 133 331 250 291 C293 275 345 254 345 206 C345 155 308 128 262 128 C198 128 134 165 111 187 C82 153 53 119 24 85 C68 37 158 -12 262 -12 C392 -12 502 62 502 206 C502 340 391 391 301 424 C248 444 208 458 208 504 C208 551 252 571 295 571 C343 571 389 548 408 529 L408 529 Z M218 758 L348 758 L463 906 L341 906 L284 842 L282 842 L224 906 L103 906 L218 758 Z " />
<glyph glyph-name="scaron" unicode="&#x161;" horiz-adv-x="454" d="M406 457 C406 457 348 512 240 512 C127 512 43 463 43 360 C43 262 111 228 174 206 C223 189 268 181 268 155 C268 134 245 122 213 122 C156 122 116 158 106 167 C80 131 54 96 28 61 C28 61 101 -12 231 -12 C353 -12 422 45 422 141 C422 239 350 276 287 297 C239 313 197 322 197 344 C197 365 222 376 250 376 C306 376 340 346 340 346 L406 457 Z M175 587 L305 587 L420 735 L298 735 L241 671 L239 671 L181 735 L60 735 L175 587 Z " />
<glyph glyph-name="Ydieresis" unicode="&#x178;" horiz-adv-x="684" d="M264 0 L419 0 L419 283 L692 700 L514 700 L343 407 L341 407 L170 700 L-8 700 L264 283 L264 0 Z M181 767 L308 767 L308 900 L181 900 L181 767 Z M378 767 L505 767 L505 900 L378 900 L378 767 Z " />
<glyph glyph-name="Zcaron" unicode="&#x17d;" horiz-adv-x="615" d="M46 562 L381 562 L381 560 L37 130 L37 0 L577 0 L577 138 L227 138 L227 140 L571 570 L571 700 L46 700 L46 562 Z M242 758 L372 758 L486 906 L364 906 L307 842 L305 842 L248 906 L126 906 L242 758 Z " />
<glyph glyph-name="zcaron" unicode="&#x17e;" horiz-adv-x="523" d="M50 366 L268 366 L268 364 L35 117 L35 0 L487 0 L487 134 L239 134 L239 136 L476 382 L476 500 L50 500 L50 366 Z M189 587 L319 587 L433 735 L311 735 L254 671 L252 671 L195 735 L73 735 L189 587 Z " />
<glyph glyph-name="florin" unicode="&#x192;" horiz-adv-x="556" d="M445 455 L373 455 L384 510 C391 544 405 576 442 576 C455 576 466 572 474 565 L541 680 C511 701 471 712 427 712 C296 712 250 628 231 539 L214 455 L112 455 L112 321 L186 321 L132 59 C126 33 111 1 71 1 C61 1 56 2 50 5 L-6 -118 C23 -133 52 -137 87 -137 C227 -137 270 -47 285 32 L344 321 L445 321 L445 455 Z " />
<glyph glyph-name="circumflex" unicode="&#x2c6;" horiz-adv-x="430" d="M35 587 L157 587 L214 650 L216 650 L273 587 L395 587 L281 735 L151 735 L35 587 Z " />
<glyph glyph-name="caron" unicode="&#x2c7;" horiz-adv-x="430" d="M151 587 L281 587 L395 735 L273 735 L216 671 L214 671 L157 735 L35 735 L151 587 Z " />
<glyph glyph-name="tilde" unicode="&#x2dc;" horiz-adv-x="426" d="M127 604 C132 626 139 639 152 641 C164 643 182 632 197 620 C218 604 247 595 276 595 C357 595 388 657 391 735 L298 735 C294 713 287 700 274 698 C263 696 246 707 232 718 C210 735 180 744 151 744 C69 744 38 682 35 604 L127 604 Z " />
<glyph glyph-name="endash" unicode="&#x2013;" horiz-adv-x="513" d="M52 191 L461 191 L461 329 L52 329 L52 191 Z " />
<glyph glyph-name="emdash" unicode="&#x2014;" horiz-adv-x="711" d="M52 191 L659 191 L659 329 L52 329 L52 191 Z " />
<glyph glyph-name="quoteleft" unicode="&#x2018;" horiz-adv-x="285" d="M243 458 L171 701 L26 701 L107 458 L243 458 Z " />
<glyph glyph-name="quoteright" unicode="&#x2019;" horiz-adv-x="285" d="M259 701 L114 701 L42 458 L178 458 L259 701 Z " />
<glyph glyph-name="quotesinglbase" unicode="&#x201a;" horiz-adv-x="281" d="M77 95 L5 -148 L141 -148 L222 95 L77 95 Z " />
<glyph glyph-name="quotedblleft" unicode="&#x201c;" horiz-adv-x="508" d="M26 701 L107 458 L243 458 L171 701 L26 701 Z M248 701 L329 458 L466 458 L393 701 L248 701 Z " />
<glyph glyph-name="quotedblright" unicode="&#x201d;" horiz-adv-x="508" d="M401 458 L482 701 L337 701 L264 458 L401 458 Z M178 458 L259 701 L114 701 L42 458 L178 458 Z " />
<glyph glyph-name="quotedblbase" unicode="&#x201e;" horiz-adv-x="504" d="M227 -148 L364 -148 L445 95 L300 95 L227 -148 Z M5 -148 L141 -148 L222 95 L77 95 L5 -148 Z " />
<glyph glyph-name="dagger" unicode="&#x2020;" horiz-adv-x="517" d="M33 539 L33 401 L180 401 L180 -125 L336 -125 L336 401 L484 401 L484 539 L336 539 L336 700 L180 700 L180 539 L33 539 Z " />
<glyph glyph-name="daggerdbl" unicode="&#x2021;" horiz-adv-x="555" d="M503 164 L355 164 L355 411 L503 411 L503 549 L355 549 L355 700 L199 700 L199 549 L52 549 L52 411 L199 411 L199 164 L52 164 L52 26 L199 26 L199 -125 L355 -125 L355 26 L503 26 L503 164 Z " />
<glyph glyph-name="bullet" unicode="&#x2022;" horiz-adv-x="564" d="M282 566 C152 566 70 471 70 355 C70 238 152 142 282 142 C412 142 494 238 494 355 C494 471 412 566 282 566 L282 566 Z " />
<glyph glyph-name="ellipsis" unicode="&#x2026;" horiz-adv-x="925" d="M56 0 L211 0 L211 144 L56 144 L56 0 Z M385 0 L540 0 L540 144 L385 144 L385 0 Z M714 0 L869 0 L869 144 L714 144 L714 0 Z " />
<glyph glyph-name="perthousand" unicode="&#x2030;" horiz-adv-x="1275" d="M382 539 C382 637 305 713 207 713 C109 713 32 637 32 539 C32 441 109 365 207 365 C305 365 382 441 382 539 L382 539 Z M848 161 C848 259 771 335 672 335 C574 335 497 259 497 161 C497 63 574 -13 672 -13 C771 -13 848 63 848 161 L848 161 Z M261 539 C261 509 237 485 209 485 C179 485 156 509 156 539 C156 569 179 594 209 594 C237 594 261 569 261 539 L261 539 Z M726 161 C726 131 703 107 674 107 C645 107 621 131 621 161 C621 191 645 216 674 216 C703 216 726 191 726 161 L726 161 Z M573 718 L127 -18 L303 -18 L749 718 L573 718 Z M1245 161 C1245 259 1168 335 1069 335 C971 335 894 259 894 161 C894 63 971 -13 1069 -13 C1168 -13 1245 63 1245 161 L1245 161 Z M1123 161 C1123 131 1100 107 1071 107 C1042 107 1018 131 1018 161 C1018 191 1042 216 1071 216 C1100 216 1123 191 1123 161 L1123 161 Z " />
<glyph glyph-name="guilsinglleft" unicode="&#x2039;" horiz-adv-x="378" d="M214 255 L340 476 L178 476 L34 256 L177 37 L339 37 L214 255 Z " />
<glyph glyph-name="guilsinglright" unicode="&#x203a;" horiz-adv-x="378" d="M201 37 L344 256 L200 476 L38 476 L165 255 L39 37 L201 37 Z " />
<glyph glyph-name="Euro" unicode="&#x20ac;" horiz-adv-x="749" d="M41 379 L96 379 C95 370 95 360 95 350 C95 340 95 331 96 323 L39 323 L39 234 L112 234 C157 86 289 -12 454 -12 C559 -12 651 29 715 96 L614 192 C575 153 519 128 454 128 C378 128 314 169 280 234 L544 234 L577 323 L253 323 C252 331 252 340 252 350 C252 360 252 370 253 379 L598 379 L631 468 L281 468 C315 531 378 572 454 572 C527 572 594 551 648 513 L690 628 C628 681 546 712 454 712 C290 712 158 614 112 468 L41 468 L41 379 Z " />
<glyph glyph-name="trademark" unicode="&#x2122;" horiz-adv-x="947" d="M36 595 L138 595 L138 293 L256 293 L256 595 L358 595 L358 700 L36 700 L36 595 Z M413 293 L531 293 L531 493 L533 493 L605 330 L686 330 L756 492 L758 492 L758 293 L876 293 L876 700 L753 700 L646 471 L644 471 L536 700 L413 700 L413 293 Z " />
</font>
</svg>
